<svg width="1079" height="1801" viewBox="0 0 1079 1801" fill="none" xmlns="http://www.w3.org/2000/svg">
<g filter="url(#filter0_d_167_122)">
<path d="M500.685 472.99C504.759 473.11 507.676 476.33 511.258 480.283C515.01 484.423 517.509 487.182 518.545 491.438C520.508 499.501 514.991 503.778 517.402 506.883C520.975 511.486 535.989 505.795 542.548 503.308C546.752 501.715 549.231 500.774 552.407 498.731C559.149 494.394 559.735 491.067 565.552 489.15C569.092 487.983 571.893 488.222 572.41 486.575C572.83 485.238 571.318 484.01 569.695 481.856C566.286 477.336 563.611 470.368 565.409 466.125C566.592 463.332 569.432 462.385 571.695 461.263C580.532 456.878 584.765 447.71 588.412 439.811C597.372 420.405 589.319 386.544 566.838 375.457C559.531 371.853 552.193 371.391 546.692 371.738C544.8 370.42 541.967 368.719 538.262 367.448C528.033 363.939 518.971 366.391 515.259 367.448C514.121 367.773 489.275 375.139 485.54 394.763C484.08 402.438 485.176 413.535 489.398 416.215C489.811 416.478 491.016 417.143 491.541 418.503C491.871 419.359 492.057 420.819 489.398 425.653C487.81 428.539 486.729 430.506 484.683 432.947C482.788 435.206 481.739 435.88 481.254 437.809C481.144 438.248 480.449 441.005 481.968 442.528C483.267 443.831 485.57 443.62 486.54 443.529C488.335 443.364 489.215 442.717 489.541 443.1C490.009 443.652 488.329 445.168 487.826 447.248C487.445 448.824 487.665 451.042 489.826 454.112C489.471 454.481 489.029 455.05 488.826 455.828C488.423 457.377 489.266 458.62 489.683 459.69C491.131 463.401 487.619 465.443 488.826 468.842C490.066 472.336 494.908 473.379 495.113 473.419C497.629 473.919 498.363 472.921 500.685 472.99Z" stroke="url(#paint0_linear_167_122)" stroke-width="4" stroke-miterlimit="10" stroke-linejoin="bevel" shape-rendering="crispEdges"/>
</g>
<g filter="url(#filter1_d_167_122)">
<path d="M349.468 689.373C350.884 684.37 361.803 660.596 360.351 633.063C359.504 616.96 358.908 608.118 352.347 600.996C341.186 588.892 327.171 597.414 305.512 586.451C300.599 583.966 278.965 573.015 275.002 554.221C270.009 530.541 296.273 509.533 286.898 496.706C283.193 491.63 276.804 491.805 274.879 485.24C273.269 479.763 277.103 477.593 278.94 468.103C281.588 454.421 275.389 449.838 279.817 442.45C282.872 437.349 286.061 439.141 292.76 431.728C296.758 427.303 302.549 419 300.103 415.369C298.257 412.631 293.659 415.427 289.434 412.841C282.638 408.687 281.588 393.558 286.982 382.951C290.311 376.394 294.922 373.9 311.272 364.576C343.804 346.027 346.723 343.828 349.188 339.943C353.811 332.649 356.475 319.929 346.547 296.219C351.835 285.288 360.689 270.817 375.428 257.615C380.38 253.18 427.429 221.357 432.079 218.317C435.292 197.616 430.479 200.022 450.537 180.158C514.011 117.287 667.976 145.041 741.694 231.163C794.137 292.428 796.841 372.586 797.805 400.469C799.209 441.154 799.676 417.962 797.437 440.037C799.327 458.527 815.012 464.376 821.328 472.767C833.412 494.579 788.588 505.598 795.686 511.339C805.166 519.006 813.382 506.005 828.909 516.424C836.94 521.813 820.195 553.853 807.467 547.415C800.396 543.839 788.018 543.913 786.474 548.127C784.351 553.928 804.653 562.552 806.409 574.756C806.328 592.475 818.576 611.495 811.89 613.87C801.593 616.256 793.421 616.458 789.029 623.459C784.436 630.773 820.958 639.542 818.597 655.524C818.072 659.097 816.832 667.484 810.673 674.33C802.739 683.153 795.271 679.827 790.392 686.761C784.396 695.279 820.737 705.089 817.385 721.093C814.959 732.688 826.3 747.035 814.83 751.427C806.519 754.608 790.006 750.465 787.678 753.798C782.364 761.387 818.488 779.266 814.202 795.848C811.609 805.875 789.824 803.332 782.025 813.765C764.09 837.767 818.945 834.248 805.146 846.901C812.825 863.533 785.516 894.451 772.212 890.325C737.059 879.431 714.067 852.088 719.516 834.106C723.555 820.781 727.26 821.526 735.544 803.438C743.034 787.08 697.28 777.56 706.594 764.686C714.338 753.983 718.432 752.042 722.547 743.051C728.899 729.168 703.13 727.499 706.243 696.805C714.482 686.906 719.982 690.827 723.593 683.113C727.465 674.856 706.723 674.33 706.723 655.731C673.5 641.626 692.5 675.731 656 643.459C634 641.626 623 635.06 613.5 667.126C605.5 689.626 597.147 703.095 578 741.093C546.1 804.412 435.504 792.425 407.347 792.717C387.103 792.924 327.294 793.542 318.455 769.068C312.677 753.068 334.456 742.313 349.478 689.361L349.468 689.373Z" stroke="url(#paint1_linear_167_122)" stroke-width="8" stroke-miterlimit="10" stroke-linejoin="bevel" shape-rendering="crispEdges"/>
</g>
<g filter="url(#filter2_d_167_122)">
<path d="M31.2558 607.146C27.6186 600.805 19.1584 586.066 24.4227 573.204C31.4302 556.108 55.5461 559.769 62.7733 542.767C70.2619 525.136 50.2627 507.224 59.0108 496.087C66.2469 486.863 83.176 495.06 89.1987 485.815C95.5789 476.031 79.4648 462.538 85.8903 449.926C89.9147 442.029 97.5682 444.677 112.185 432.604C120.357 425.848 128.043 419.492 127.538 412.146C126.826 401.817 110.777 401.578 103.028 386.151C98.8891 377.909 97.5431 366.19 101.817 357.378C107.196 346.269 118.562 345.832 153.131 335.406C189.851 324.325 184.536 322.545 218.826 312.83C242.983 305.986 238.34 307.028 245.5 301.126C261.905 287.591 260.589 249.952 269.514 227.39C285.377 187.304 304.195 166.07 325.352 155.582C359.915 138.436 385.818 136.414 393.966 114.667C398.399 102.817 393.06 98.5675 400.02 89.3859C411.897 73.7289 420.5 67.1261 433.5 54.626C443 48.6261 438.486 54.626 450.351 44.0263C485.5 12.6261 561.245 20.4519 568.268 21.0504C628.098 26.1164 671.235 27.3839 714.087 46.2869C849.407 105.999 934.834 326.703 894.366 470.657C876.823 533.082 843.427 556.971 850.211 620.037C853.759 653.069 861.814 669.665 889.08 773.323C907.575 843.635 899.008 874.7 904.875 934.784C915.563 1044.21 956.359 1067.97 1009.96 1205.98C1009.96 1205.98 1108.35 1459.32 1048.14 1685.34C1044.22 1700.04 1017.78 1764.31 999.096 1761.26C973.158 1757.01 1002.95 1629.15 950.515 1476.05C937.254 1437.34 932.595 1437.48 826.42 1253.32C747.622 1116.66 709.924 1047.1 699.477 1019.08C642.207 865.345 671.664 738.878 658.741 737.5C652.806 736.866 652.622 773.025 623.255 793.035C599.133 809.474 624.782 826.103 606.5 844.126C594.434 856.03 601.976 884.126 596.5 906.126C582.314 963.118 583.522 972.686 580.564 994.205C571.63 1059.28 470.177 1030.61 419.377 1083.11C313.867 1192.16 275.529 1414.56 334.314 1544.24C343.613 1564.76 380.593 1638.49 376.274 1728.02C375.872 1736.29 374.55 1763.73 368.802 1764.36C365.877 1764.68 356.448 1758.65 325.879 1600.43C292.525 1427.77 275.842 1341.44 285.888 1292.27C311.919 1164.91 395.633 1075.1 395.633 1075.1C440.375 1027.09 521.433 1057.26 529.613 1004.05C538.405 946.829 571.734 831.918 564.957 830.815C558.015 829.69 527.763 948.623 490.505 1016.49C460.967 1070.31 417.061 1014.16 344.166 1093.46C344.166 1093.46 278.789 1165.33 255.906 1264.7C242.674 1322.16 254.994 1346.09 290.934 1540.64C316.869 1681.04 329.841 1751.23 321.52 1753.72C312.57 1756.39 279.409 1696.25 271.115 1626.14C266.853 1590.05 271.257 1568.96 273.03 1543.19C280.878 1428.87 224.248 1405.11 223.631 1311.09C222.959 1209.17 288.756 1124.81 323.775 1079.9C375.913 1013.05 474.325 1023.43 466.891 1012.07C456.722 996.529 310.2 1024.93 262.298 988.809C238.368 970.764 251.577 941.106 235.647 869.238C224.08 817.04 238.352 746.078 186.536 701.43C131.703 654.197 59.5046 656.279 31.2634 607.084L31.2558 607.146Z" stroke="url(#paint2_linear_167_122)" stroke-width="8" stroke-miterlimit="10" stroke-linejoin="bevel" shape-rendering="crispEdges"/>
</g>
<g filter="url(#filter3_d_167_122)">
<path d="M431.17 358.828C429.591 365.997 423.693 374.058 422.805 378.671C422.076 382.456 421.977 386.099 421.977 386.099C421.904 388.849 422.12 390.37 422.427 394.251C422.881 400.003 423.106 402.877 422.994 404.579C422.625 410.228 420.138 414.331 418.343 417.288C413.545 425.198 406.959 429.471 403.072 431.935C392.964 438.342 387.647 437.506 385.944 442.358C383.913 448.149 389.472 455.078 389.82 455.503C394.798 461.558 401.132 460.95 401.686 464.7C402.268 468.628 395.432 470.174 395.072 475.704C394.69 481.547 401.948 485.567 400.41 488.294C399.439 490.012 396.439 488.648 393.897 490.893C390.867 493.571 391.448 498.768 391.51 499.273C392.469 506.948 400.605 508.424 400.333 513.587C400.101 517.99 394.087 518.559 392.282 523.582C389.481 531.379 399.791 541.693 400.745 542.629C420.107 561.596 449.498 543.961 463.587 560.082C468.166 565.324 468.46 575.033 469.044 594.453C469.946 624.479 463.517 637.301 471.623 645.98C475.943 650.608 482.105 651.613 494.033 651.949C530.564 652.975 571.304 654.119 580.495 633.629C585.474 622.532 574.509 617.538 575.839 596.212C577.456 570.259 595.101 548.391 599.726 550.029C602.353 550.959 606.59 552.341 608.713 563.955C612.057 582.265 620.759 587.683 637.822 592.994C665.914 601.737 695.913 572.669 708.821 553.692C736.198 513.449 730.996 471.691 704.94 455.343C689.305 445.532 670.436 455.017 663.149 443.402C656.775 433.244 669.051 423.036 669.982 401.532C669.982 401.532 669.998 400.486 669.997 399.053C669.965 388.709 669.855 351.389 649.517 322.061C634.876 300.951 615.23 291.875 600.784 285.208C558.141 265.519 518.69 272.067 506.217 274.648C502.526 275.41 456.495 285.419 437.286 313.13C432.805 319.596 426.839 328.201 427.518 339.15C428.095 348.454 432.934 350.83 431.17 358.828Z" stroke="url(#paint3_linear_167_122)" stroke-width="6" stroke-miterlimit="10" stroke-linejoin="bevel" shape-rendering="crispEdges"/>
</g>
<defs>
<filter id="filter0_d_167_122" x="475" y="363.626" width="123" height="155" filterUnits="userSpaceOnUse" color-interpolation-filters="sRGB">
<feFlood flood-opacity="0" result="BackgroundImageFix"/>
<feColorMatrix in="SourceAlpha" type="matrix" values="0 0 0 0 0 0 0 0 0 0 0 0 0 0 0 0 0 0 127 0" result="hardAlpha"/>
<feOffset dy="4"/>
<feGaussianBlur stdDeviation="2"/>
<feComposite in2="hardAlpha" operator="out"/>
<feColorMatrix type="matrix" values="0 0 0 0 0 0 0 0 0 0 0 0 0 0 0 0 0 0 0.25 0"/>
<feBlend mode="normal" in2="BackgroundImageFix" result="effect1_dropShadow_167_122"/>
<feBlend mode="normal" in="SourceGraphic" in2="effect1_dropShadow_167_122" result="shape"/>
</filter>
<filter id="filter1_d_167_122" x="266.368" y="141.959" width="572.638" height="760.744" filterUnits="userSpaceOnUse" color-interpolation-filters="sRGB">
<feFlood flood-opacity="0" result="BackgroundImageFix"/>
<feColorMatrix in="SourceAlpha" type="matrix" values="0 0 0 0 0 0 0 0 0 0 0 0 0 0 0 0 0 0 127 0" result="hardAlpha"/>
<feOffset dy="4"/>
<feGaussianBlur stdDeviation="2"/>
<feComposite in2="hardAlpha" operator="out"/>
<feColorMatrix type="matrix" values="0 0 0 0 0 0 0 0 0 0 0 0 0 0 0 0 0 0 0.25 0"/>
<feBlend mode="normal" in2="BackgroundImageFix" result="effect1_dropShadow_167_122"/>
<feBlend mode="normal" in="SourceGraphic" in2="effect1_dropShadow_167_122" result="shape"/>
</filter>
<filter id="filter2_d_167_122" x="14.7422" y="15.7578" width="1060.9" height="1760.61" filterUnits="userSpaceOnUse" color-interpolation-filters="sRGB">
<feFlood flood-opacity="0" result="BackgroundImageFix"/>
<feColorMatrix in="SourceAlpha" type="matrix" values="0 0 0 0 0 0 0 0 0 0 0 0 0 0 0 0 0 0 127 0" result="hardAlpha"/>
<feOffset dy="4"/>
<feGaussianBlur stdDeviation="2"/>
<feComposite in2="hardAlpha" operator="out"/>
<feColorMatrix type="matrix" values="0 0 0 0 0 0 0 0 0 0 0 0 0 0 0 0 0 0 0.25 0"/>
<feBlend mode="normal" in2="BackgroundImageFix" result="effect1_dropShadow_167_122"/>
<feBlend mode="normal" in="SourceGraphic" in2="effect1_dropShadow_167_122" result="shape"/>
</filter>
<filter id="filter3_d_167_122" x="378.499" y="268.506" width="355.556" height="394.906" filterUnits="userSpaceOnUse" color-interpolation-filters="sRGB">
<feFlood flood-opacity="0" result="BackgroundImageFix"/>
<feColorMatrix in="SourceAlpha" type="matrix" values="0 0 0 0 0 0 0 0 0 0 0 0 0 0 0 0 0 0 127 0" result="hardAlpha"/>
<feOffset dy="4"/>
<feGaussianBlur stdDeviation="2"/>
<feComposite in2="hardAlpha" operator="out"/>
<feColorMatrix type="matrix" values="0 0 0 0 0 0 0 0 0 0 0 0 0 0 0 0 0 0 0.25 0"/>
<feBlend mode="normal" in2="BackgroundImageFix" result="effect1_dropShadow_167_122"/>
<feBlend mode="normal" in="SourceGraphic" in2="effect1_dropShadow_167_122" result="shape"/>
</filter>
<linearGradient id="paint0_linear_167_122" x1="536.5" y1="365.626" x2="536.5" y2="508.626" gradientUnits="userSpaceOnUse">
<stop stop-color="#FDCD54"/>
<stop offset="1" stop-color="#DBF39D"/>
</linearGradient>
<linearGradient id="paint1_linear_167_122" x1="642.512" y1="161.236" x2="486.213" y2="820.84" gradientUnits="userSpaceOnUse">
<stop stop-color="#FDCD54"/>
<stop offset="1" stop-color="#DBF39D"/>
</linearGradient>
<linearGradient id="paint2_linear_167_122" x1="502.069" y1="21.1273" x2="576.052" y2="1779.23" gradientUnits="userSpaceOnUse">
<stop stop-color="#FDCD54"/>
<stop offset="1" stop-color="#DBF39D"/>
</linearGradient>
<linearGradient id="paint3_linear_167_122" x1="584.967" y1="276.747" x2="529.791" y2="657.931" gradientUnits="userSpaceOnUse">
<stop stop-color="#FDCD54"/>
<stop offset="1" stop-color="#DBF39D"/>
</linearGradient>
</defs>
</svg>
