<svg width="1596" height="2666" viewBox="0 0 1596 2666" fill="none" xmlns="http://www.w3.org/2000/svg">
<g filter="url(#filter0_d_339_837)">
<path d="M715.63 646.825C720.406 647.285 723.578 651.401 727.473 656.453C731.552 661.744 734.269 665.269 735.148 670.49C736.815 680.382 729.993 685.122 732.579 689.059C736.411 694.896 754.504 689.18 762.408 686.683C767.474 685.083 770.461 684.138 774.355 681.917C782.621 677.198 783.574 673.225 790.56 671.358C794.813 670.222 798.084 670.727 798.823 668.778C799.423 667.196 797.744 665.595 796.008 662.868C792.362 657.144 789.773 648.521 792.221 643.534C793.833 640.252 797.246 639.328 799.994 638.146C810.725 633.533 816.426 622.784 821.339 613.525C833.408 590.775 826.636 549.251 801.102 534.12C792.804 529.203 784.218 528.078 777.728 528.072C775.61 526.333 772.416 524.061 768.164 522.239C756.425 517.209 745.582 519.471 741.136 520.461C739.774 520.766 709.996 527.744 704.049 551.161C701.724 560.319 702.13 573.808 706.878 577.371C707.342 577.721 708.706 578.617 709.214 580.301C709.534 581.361 709.636 583.139 706.128 588.773C704.034 592.136 702.607 594.428 700.009 597.219C697.603 599.802 696.318 600.535 695.594 602.827C695.429 603.349 694.395 606.626 696.058 608.583C697.48 610.258 700.203 610.18 701.35 610.146C703.472 610.084 704.558 609.371 704.91 609.859C705.417 610.562 703.322 612.264 702.566 614.737C701.993 616.611 702.075 619.307 704.371 623.183C703.924 623.602 703.36 624.255 703.059 625.179C702.463 627.019 703.355 628.585 703.76 629.91C705.166 634.504 700.877 636.7 702.026 640.899C703.205 645.216 708.812 646.849 709.049 646.913C711.965 647.712 712.907 646.563 715.63 646.825Z" stroke="url(#paint0_linear_339_837)" stroke-width="3" stroke-miterlimit="10" stroke-linejoin="bevel" shape-rendering="crispEdges"/>
</g>
<g filter="url(#filter1_d_339_837)">
<path d="M469.486 1038.72C471.75 1030.72 489.207 992.713 486.886 948.693C485.532 922.949 484.579 908.811 474.089 897.425C456.244 878.073 433.838 891.698 399.21 874.17C391.356 870.198 356.768 852.691 350.432 822.643C342.45 784.783 384.439 751.197 369.45 730.688C363.527 722.573 353.313 722.853 350.235 712.356C347.66 703.601 353.791 700.132 356.727 684.96C360.96 663.084 351.051 655.757 358.13 643.945C363.013 635.791 368.113 638.654 378.822 626.803C385.215 619.728 394.474 606.454 390.563 600.649C387.61 596.272 380.259 600.741 373.505 596.607C362.64 589.966 360.962 565.778 369.584 548.82C374.907 538.336 382.278 534.349 408.42 519.442C460.431 489.786 465.097 486.27 469.039 480.059C476.429 468.398 480.689 448.062 464.816 410.154C473.271 392.679 487.426 369.542 510.991 348.436C518.907 341.344 594.129 290.467 601.562 285.606C606.7 252.51 599.005 256.357 631.073 224.598C732.554 124.081 978.709 168.454 1096.57 306.143C1180.41 404.094 1184.74 532.248 1186.28 576.827C1188.52 641.874 1189.27 604.795 1185.69 640.087C1188.71 669.649 1213.79 679 1223.89 692.416C1243.21 727.288 1171.54 744.905 1182.89 754.083C1198.05 766.341 1211.18 745.555 1236.01 762.213C1248.85 770.829 1222.07 822.054 1201.73 811.762C1190.42 806.044 1170.63 806.162 1168.16 812.899C1164.77 822.174 1197.23 835.962 1200.03 855.474C1199.9 883.802 1219.49 914.21 1208.8 918.007C1192.33 921.823 1179.27 922.146 1172.25 933.338C1164.9 945.033 1223.29 959.052 1219.52 984.604C1218.68 990.316 1216.7 1003.73 1206.85 1014.67C1194.17 1028.78 1182.23 1023.46 1174.43 1034.54C1164.84 1048.16 1222.94 1063.85 1217.58 1089.43C1213.7 1107.97 1231.84 1130.91 1213.5 1137.93C1200.21 1143.02 1173.81 1136.39 1170.09 1141.72C1161.59 1153.85 1219.34 1182.44 1212.49 1208.95C1208.35 1224.98 1173.52 1220.92 1161.05 1237.6C1132.38 1275.97 1220.08 1270.34 1198.02 1290.57C1210.29 1317.16 1166.63 1366.59 1145.36 1360C1089.16 1342.58 1052.4 1298.87 1061.11 1270.12C1067.57 1248.81 1073.49 1250 1086.74 1221.09C1098.71 1194.93 1025.56 1179.71 1040.45 1159.13C1052.83 1142.02 1059.38 1138.91 1065.96 1124.54C1076.11 1102.34 1034.91 1099.68 1039.89 1050.6C1053.06 1034.78 1061.86 1041.04 1067.63 1028.71C1073.82 1015.51 1040.66 1014.67 1040.66 984.935C987.542 962.383 1017.92 1016.91 959.563 965.314C924.39 962.383 906.803 951.887 891.615 1003.15C878.825 1039.12 865.47 1060.66 834.858 1121.41C783.858 1222.64 607.038 1203.48 562.022 1203.95C529.656 1204.28 434.035 1205.26 419.904 1166.14C410.665 1140.56 445.485 1123.36 469.502 1038.7L469.486 1038.72Z" stroke="url(#paint1_linear_339_837)" stroke-width="8" stroke-miterlimit="10" stroke-linejoin="bevel" shape-rendering="crispEdges"/>
</g>
<g filter="url(#filter2_d_339_837)">
<path d="M46.3872 899.421C41.0033 890.034 28.4802 868.216 36.2726 849.178C46.6454 823.872 82.3427 829.291 93.0408 804.123C104.126 778.026 74.5219 751.512 87.4714 735.026C98.1824 721.372 123.242 733.505 132.157 719.82C141.601 705.338 117.748 685.365 127.259 666.697C133.217 655.007 144.546 658.927 166.182 641.056C178.279 631.055 189.655 621.648 188.909 610.773C187.855 595.484 164.098 595.13 152.627 572.294C146.501 560.094 144.508 542.746 150.834 529.703C158.797 513.259 175.622 512.612 226.792 497.18C281.146 480.777 273.278 478.142 324.036 463.761C359.794 453.631 352.922 455.173 363.521 446.437C387.804 426.401 385.856 370.686 399.067 337.29C422.548 277.952 450.402 246.521 481.72 230.996C532.882 205.616 571.225 202.624 583.285 170.432C589.848 152.891 581.945 146.601 592.248 133.01C609.828 109.834 622.563 100.061 641.805 81.5574C655.868 72.6761 649.186 81.5574 666.749 65.8673C718.778 19.3874 830.9 30.9714 841.295 31.8573C929.857 39.3562 993.711 41.2325 1057.14 69.2134C1257.45 157.602 1383.9 484.296 1324 697.383C1298.03 789.788 1248.6 825.149 1258.64 918.502C1263.89 967.398 1275.81 991.964 1316.17 1145.4C1343.55 1249.48 1330.87 1295.46 1339.55 1384.4C1355.37 1546.37 1415.76 1581.56 1495.1 1785.83C1495.1 1785.83 1640.74 2160.85 1551.62 2495.4C1545.82 2517.17 1506.68 2612.31 1479.02 2607.78C1440.63 2601.5 1484.73 2412.23 1407.11 2185.61C1387.48 2128.3 1380.59 2128.52 1223.42 1855.92C1106.78 1653.62 1050.98 1550.66 1035.52 1509.18C950.742 1281.62 994.346 1094.41 975.217 1092.38C966.432 1091.44 966.16 1144.96 922.689 1174.58C886.982 1198.91 924.948 1223.53 897.887 1250.21C880.027 1267.83 891.191 1309.42 883.085 1341.98C862.086 1426.34 863.874 1440.51 859.496 1472.36C846.271 1568.69 696.097 1526.25 620.9 1603.96C464.72 1765.38 407.97 2094.59 494.986 2286.55C508.752 2316.92 563.491 2426.05 557.098 2558.58C556.502 2570.82 554.546 2611.44 546.038 2612.38C541.707 2612.85 527.75 2603.93 482.501 2369.73C433.128 2114.15 408.434 1986.35 423.304 1913.58C461.836 1725.04 585.753 1592.1 585.753 1592.1C651.983 1521.05 771.967 1565.7 784.075 1486.93C797.09 1402.23 846.425 1232.14 836.394 1230.5C826.118 1228.84 781.337 1404.89 726.186 1505.35C682.464 1585.01 617.472 1501.9 509.57 1619.28C509.57 1619.28 412.796 1725.66 378.923 1872.76C359.338 1957.81 377.574 1993.23 430.774 2281.22C469.164 2489.04 488.366 2592.95 476.049 2596.63C462.8 2600.58 413.714 2511.56 401.437 2407.77C395.128 2354.36 401.647 2323.13 404.271 2284.99C415.888 2115.77 332.062 2080.6 331.149 1941.43C330.154 1790.56 427.55 1665.69 479.386 1599.21C556.564 1500.25 702.237 1515.62 691.232 1498.81C676.18 1475.8 459.292 1517.84 388.385 1464.37C352.963 1437.66 372.516 1393.76 348.936 1287.38C331.813 1210.11 352.94 1105.07 276.239 1038.98C195.073 969.067 88.2022 972.149 46.3985 899.329L46.3872 899.421Z" stroke="url(#paint2_linear_339_837)" stroke-width="8" stroke-miterlimit="10" stroke-linejoin="bevel" shape-rendering="crispEdges"/>
</g>
<g filter="url(#filter3_d_339_837)">
<path d="M582.191 478.801C579.413 491.42 569.031 505.609 567.468 513.73C566.184 520.392 566.01 526.805 566.01 526.805C565.881 531.645 566.261 534.323 566.802 541.154C567.6 551.279 567.997 556.338 567.801 559.334C567.15 569.277 562.773 576.5 559.613 581.704C551.167 595.629 539.574 603.149 532.733 607.487C514.941 618.764 505.581 617.294 502.584 625.833C499.008 636.027 508.793 648.223 509.405 648.972C518.169 659.63 529.317 658.559 530.293 665.16C531.318 672.074 519.285 674.795 518.651 684.529C517.978 694.816 530.754 701.891 528.047 706.691C526.338 709.715 521.057 707.315 516.582 711.266C511.25 715.98 512.271 725.128 512.38 726.016C514.069 739.527 528.391 742.125 527.912 751.213C527.504 758.963 516.916 759.965 513.74 768.806C508.809 782.53 526.957 800.686 528.636 802.332C562.718 835.72 614.453 804.677 639.252 833.055C647.312 842.282 647.83 859.371 648.858 893.554C650.446 946.407 639.13 968.978 653.398 984.255C661.002 992.401 671.848 994.169 692.844 994.762C757.148 996.568 828.858 998.58 845.038 962.513C853.8 942.98 834.501 934.19 836.841 896.651C839.687 850.968 870.746 812.476 878.889 815.358C883.512 816.995 890.97 819.428 894.708 839.872C900.594 872.101 915.911 881.638 945.946 890.987C995.393 906.376 1048.2 855.21 1070.92 821.807C1119.11 750.97 1109.95 677.467 1064.09 648.69C1036.57 631.419 1003.35 648.116 990.526 627.671C979.307 609.79 1000.92 591.823 1002.55 553.971C1002.55 553.971 1002.58 552.129 1002.58 549.607C1002.52 531.399 1002.33 465.708 966.532 414.083C940.761 376.925 906.178 360.949 880.751 349.215C805.689 314.556 736.247 326.083 714.29 330.625C707.794 331.967 626.77 349.586 592.957 398.363C585.069 409.745 574.569 424.891 575.763 444.163C576.778 460.54 585.296 464.724 582.191 478.801Z" stroke="url(#paint3_linear_339_837)" stroke-width="6" stroke-miterlimit="10" stroke-linejoin="bevel" shape-rendering="crispEdges"/>
</g>
<g filter="url(#filter4_d_339_837)">
<path d="M636.109 631.883C628.639 641.529 624.683 646.768 626.396 650.467C629.169 656.467 644.162 652.06 646.705 658.431C648.904 663.944 639.924 670.865 643.173 677.015C644.692 679.891 647.677 679.9 648.471 683.21C649.178 686.166 647.226 687.785 646.705 691.174C646.008 695.67 648.56 698.555 651.121 703.564C657.169 715.396 653.293 719.528 658.185 725.688C662.988 731.741 670.821 732.909 675.845 733.652C695.351 736.555 702.962 723.458 713.815 728.342C720.778 731.47 723.747 739.844 729.678 756.572L729.709 756.661L729.713 756.672C734.355 769.78 737.285 778.053 735.89 787.634C734.095 799.963 751.158 796.784 782.36 790.97L782.69 790.909C800.265 787.634 807.09 778.652 830.596 769.953C809.43 747.802 830.322 703.152 830.596 676.754C838.816 675.072 849.349 673.847 865.694 657.546C886.86 636.44 889.73 610.759 890.418 603.564C891.566 591.644 890.092 581.732 888.652 575.246C906.754 570.785 920.838 557.104 924.856 539.847C929.598 519.485 918.145 503.467 916.909 501.794C908.476 490.396 897.218 486.272 893.067 484.98C894.127 480.113 895.725 469.272 890.418 458.432C881.87 440.954 861.998 436.98 854.238 435.428L854.215 435.423C834.179 431.432 806.17 435.954 791.52 456.662C785.472 465.219 783.458 474.051 782.69 479.671C766.416 474.715 740.243 469.786 711.166 477.901C708.702 478.591 664.904 491.246 659.951 514.184C659.703 515.325 656.913 528.865 662.6 532.768C664.675 534.184 668.896 535.033 668.781 536.308C668.737 536.803 668.048 537.086 667.898 537.193C662.856 540.679 651.668 568.21 651.121 579.67C650.962 583.104 651.739 585.387 652.101 586.307C652.754 587.989 653.54 589.069 653.77 589.405C656.074 592.803 656.41 601.83 652.887 610.644C649.628 618.794 646.246 618.776 636.109 631.883Z" stroke="url(#paint4_linear_339_837)" stroke-width="5" stroke-miterlimit="10" shape-rendering="crispEdges"/>
</g>
<g filter="url(#filter5_d_339_837)">
<path d="M750.776 589.811C750.924 590.185 750.67 590.645 750.264 591.357C749.727 592.301 749.375 592.54 749.474 592.827C749.623 593.258 750.533 593.104 750.659 593.575C750.743 593.891 750.428 594.306 750.566 594.423C750.624 594.471 750.676 594.474 750.789 594.493C751.167 594.557 751.436 594.786 751.682 594.996C751.842 595.133 752.005 595.273 752.147 595.52C752.189 595.593 752.37 595.888 752.379 596.317C752.395 597.044 752.073 597.202 752.17 597.664C752.245 598.025 752.457 597.998 752.727 598.486C753.113 599.183 752.881 599.602 753.122 599.832C753.6 600.288 754.739 598.872 756.12 598.835C757.859 598.79 759.821 600.937 760.024 603.023C760.182 604.651 758.423 605.543 758.839 607.111C758.902 607.349 759.063 607.956 759.466 608.084C760.399 608.378 761.083 605.623 763.393 604.07C765.768 602.474 768.042 603.394 768.296 602.4C768.674 600.926 764.372 598.47 764.718 597.788C764.88 597.468 765.778 597.893 767.483 597.464C768.093 597.311 768.914 597.095 768.994 596.592C769.043 596.276 768.798 595.871 768.506 595.744C768.313 595.66 768.223 595.751 767.762 595.719C767.398 595.694 767.215 595.682 767.111 595.57C766.841 595.277 767.031 594.583 767.274 594.149C767.589 593.585 767.875 593.667 768.273 593.102C768.741 592.437 768.779 591.707 768.784 591.581C768.789 591.458 768.813 590.543 768.227 589.761C767.649 588.991 766.924 588.944 766.949 588.615C766.98 588.197 768.146 588.298 768.459 587.543C768.68 587.009 768.353 586.349 768.203 586.047C767.901 585.437 767.453 585.115 767.32 585.025C766.475 584.453 765.712 584.706 765.624 584.377C765.531 584.031 766.378 583.771 766.554 582.906C766.563 582.859 766.673 582.279 766.391 581.784C765.894 580.912 764.631 581.426 764.23 580.687C763.919 580.116 764.537 579.594 764.207 578.868C763.953 578.31 763.283 577.941 762.696 577.97C761.779 578.016 761.475 579.017 760.953 578.868C760.375 578.702 760.646 577.441 759.768 576.649C759.266 576.195 758.437 575.941 757.816 576.225C756.909 576.64 756.999 577.952 756.352 578.045C755.802 578.124 755.627 577.188 754.586 576.873C754.46 576.835 753.558 576.562 752.983 577.048C752.289 577.634 752.818 578.695 752.17 579.241C751.585 579.734 750.891 579.095 750.102 579.69C750.016 579.755 749.522 580.127 749.451 580.712C749.338 581.648 750.431 582.1 750.288 582.831C750.154 583.511 749.12 583.458 749.01 584.127C748.894 584.826 749.863 585.029 750.148 586.122C750.494 587.446 749.426 588.514 749.962 589.213C750.236 589.57 750.626 589.435 750.776 589.811Z" stroke="url(#paint5_linear_339_837)" stroke-miterlimit="10" shape-rendering="crispEdges"/>
</g>
<g filter="url(#filter6_d_339_837)">
<path d="M732.758 570.775C732.684 571.218 732.612 571.608 732.581 572.002C732.449 573.656 732.333 575.312 732.227 576.969C732.133 578.434 732.012 579.898 731.995 581.364C731.982 582.382 732.166 583.402 732.188 584.422C732.201 585.036 732.127 585.667 731.997 586.266C731.579 588.187 731.119 590.097 730.669 592.009C730.132 594.296 729.579 596.579 729.051 598.868C728.792 599.994 729.548 600.804 730.62 600.536C731.15 600.403 731.645 600.112 732.177 599.981C733.026 599.773 733.881 599.748 734.689 600.203C735.14 600.457 735.602 600.587 736.018 600.153C736.439 599.713 736.489 598.949 736.174 598.373C736.093 598.226 736.025 598.07 735.948 597.911C736.25 597.749 736.421 597.862 736.559 598.089C737 598.812 736.896 599.978 736.308 600.567C735.817 601.058 735.261 600.897 734.724 600.656C733.895 600.284 733.057 600.096 732.173 600.426C732.148 600.436 732.126 600.456 732.043 600.508C732.344 600.628 732.607 600.729 732.868 600.839C733.925 601.284 734.208 601.828 733.986 602.983C733.833 603.781 733.853 603.735 734.565 604.064C735.261 604.384 735.929 604.783 736.576 605.203C737.018 605.489 737.458 605.66 737.977 605.599C738.102 605.585 738.247 605.553 738.353 605.602C738.458 605.65 738.524 605.79 738.606 605.889C738.524 605.944 738.446 606.024 738.356 606.048C738.249 606.075 738.13 606.057 738.017 606.053C737.421 606.026 736.834 606.047 736.268 606.298C736.092 606.377 735.882 606.389 735.687 606.4C735.219 606.43 735.084 606.553 735.041 607.026C735.003 607.451 735.204 607.806 735.541 607.903C736.868 608.289 737.475 609.516 737.021 610.895C736.842 611.441 736.609 611.976 736.494 612.536C736.157 614.177 736.843 615.392 738.058 616.337C739.036 617.095 740.197 617.346 741.367 617.453C743.224 617.623 745.087 617.707 746.947 617.83C747.678 617.877 748.414 617.885 749.136 617.994C749.81 618.096 750.165 618.546 750.161 619.253C750.158 620.007 750.119 620.766 750.029 621.515C749.714 624.141 749.547 626.777 749.683 629.421C749.728 630.317 749.816 631.212 749.913 632.105L775.582 631.491C778.176 624.12 772.468 617.344 775.525 615.419C775.619 615.549 782.297 605.199 782.345 605.345C782.581 606.059 782.762 606.794 783.022 607.497C783.767 609.516 785.246 610.674 787.207 611.071C789.49 611.533 791.541 610.83 793.247 609.207C794.434 608.076 795.436 606.663 796.337 604.834C797.547 602.377 796.954 599.04 795.732 597.064C789.5 586.984 787.346 599.482 785.495 598.635C785.565 597.928 787.548 586.52 787.516 585.808C787.776 584.3 787.654 582.765 787.494 581.239C787.303 579.4 786.899 577.613 786.322 575.878C785.071 572.118 783.294 568.698 780.442 565.961C778.358 563.961 776.102 562.252 773.568 560.949C773.369 560.846 773.145 560.799 772.932 560.726L772.93 560.721C772.332 560.432 771.746 560.109 771.134 559.86C768.723 558.883 766.211 558.316 763.655 557.993C761.632 557.737 759.601 557.721 757.572 558.041C755.676 558.341 753.772 558.584 751.871 558.845C751.663 558.874 751.448 558.849 751.165 558.849C751.211 558.905 751.276 558.986 751.353 559.087C751.657 559.489 752.285 560.396 752.178 560.514C752.045 560.661 745.291 555.054 743.428 553.62M732.758 570.775C733.086 571.521 733.343 572.324 733.806 572.962C734.762 574.28 736.143 574.697 737.691 574.535C738.362 574.465 739.04 574.296 739.701 574.35C740.618 574.424 741.243 575.101 741.799 575.816C742.424 576.622 743.034 577.433 743.863 578.038C742.589 577.288 742.576 576.489 741.711 575.279C740.974 574.247 740.042 573.783 738.787 574.092C738.23 574.229 737.636 574.297 737.067 574.258C735.495 574.147 734.262 573.408 733.519 571.899C733.292 571.439 733.088 570.967 732.821 570.385C732.801 570.52 732.779 570.65 732.758 570.775ZM732.758 570.775C732.73 570.712 732.702 570.649 732.673 570.586C732.611 570.455 732.541 570.328 732.475 570.199C732.433 570.202 732.392 570.206 732.35 570.208C732.213 570.664 732.075 571.118 731.935 571.584C731.012 570.24 730.808 568.875 731.685 567.458C732.026 566.908 732.096 566.337 731.927 565.716C731.751 565.063 731.847 564.452 732.211 563.89C732.791 562.995 733.597 562.42 734.563 562.082C735.172 561.871 735.782 561.778 736.437 561.871C736.947 561.945 737.497 561.745 737.997 561.843C739.474 562.134 740.71 562.432 741.319 562.695C743.081 563.455 750.231 566.468 750.258 566.409C750.283 566.354 744.667 562.396 736.536 561.352C736.314 561.323 736.123 561.301 735.974 561.285C736.068 560.405 736.182 559.584 736.234 558.759C736.284 557.967 736.296 557.17 736.275 556.378C736.251 555.486 736.22 555.041 736.117 554.432C735.942 553.392 735.729 553.058 735.927 552.684C736.186 552.194 736.818 552.269 737.309 552.071C739.27 551.282 744.1 546.104 744.328 546.105C744.468 546.107 741.251 551.626 743.603 553.799" stroke="url(#paint6_linear_339_837)" stroke-width="1.5" stroke-miterlimit="10" shape-rendering="crispEdges"/>
</g>
<defs>
<filter id="filter0_d_339_837" x="689.625" y="517.589" width="143.015" height="183.509" filterUnits="userSpaceOnUse" color-interpolation-filters="sRGB">
<feFlood flood-opacity="0" result="BackgroundImageFix"/>
<feColorMatrix in="SourceAlpha" type="matrix" values="0 0 0 0 0 0 0 0 0 0 0 0 0 0 0 0 0 0 127 0" result="hardAlpha"/>
<feOffset dy="4"/>
<feGaussianBlur stdDeviation="2"/>
<feComposite in2="hardAlpha" operator="out"/>
<feColorMatrix type="matrix" values="0 0 0 0 0 0 0 0 0 0 0 0 0 0 0 0 0 0 0.25 0"/>
<feBlend mode="normal" in2="BackgroundImageFix" result="effect1_dropShadow_339_837"/>
<feBlend mode="normal" in="SourceGraphic" in2="effect1_dropShadow_339_837" result="shape"/>
</filter>
<filter id="filter1_d_339_837" x="341.416" y="165.921" width="905.941" height="1206.68" filterUnits="userSpaceOnUse" color-interpolation-filters="sRGB">
<feFlood flood-opacity="0" result="BackgroundImageFix"/>
<feColorMatrix in="SourceAlpha" type="matrix" values="0 0 0 0 0 0 0 0 0 0 0 0 0 0 0 0 0 0 127 0" result="hardAlpha"/>
<feOffset dy="4"/>
<feGaussianBlur stdDeviation="2"/>
<feComposite in2="hardAlpha" operator="out"/>
<feColorMatrix type="matrix" values="0 0 0 0 0 0 0 0 0 0 0 0 0 0 0 0 0 0 0.25 0"/>
<feBlend mode="normal" in2="BackgroundImageFix" result="effect1_dropShadow_339_837"/>
<feBlend mode="normal" in="SourceGraphic" in2="effect1_dropShadow_339_837" result="shape"/>
</filter>
<filter id="filter2_d_339_837" x="25.7852" y="25.9443" width="1562.71" height="2598.45" filterUnits="userSpaceOnUse" color-interpolation-filters="sRGB">
<feFlood flood-opacity="0" result="BackgroundImageFix"/>
<feColorMatrix in="SourceAlpha" type="matrix" values="0 0 0 0 0 0 0 0 0 0 0 0 0 0 0 0 0 0 127 0" result="hardAlpha"/>
<feOffset dy="4"/>
<feGaussianBlur stdDeviation="2"/>
<feComposite in2="hardAlpha" operator="out"/>
<feColorMatrix type="matrix" values="0 0 0 0 0 0 0 0 0 0 0 0 0 0 0 0 0 0 0.25 0"/>
<feBlend mode="normal" in2="BackgroundImageFix" result="effect1_dropShadow_339_837"/>
<feBlend mode="normal" in="SourceGraphic" in2="effect1_dropShadow_339_837" result="shape"/>
</filter>
<filter id="filter3_d_339_837" x="494.8" y="322.095" width="615.22" height="684.481" filterUnits="userSpaceOnUse" color-interpolation-filters="sRGB">
<feFlood flood-opacity="0" result="BackgroundImageFix"/>
<feColorMatrix in="SourceAlpha" type="matrix" values="0 0 0 0 0 0 0 0 0 0 0 0 0 0 0 0 0 0 127 0" result="hardAlpha"/>
<feOffset dy="4"/>
<feGaussianBlur stdDeviation="2"/>
<feComposite in2="hardAlpha" operator="out"/>
<feColorMatrix type="matrix" values="0 0 0 0 0 0 0 0 0 0 0 0 0 0 0 0 0 0 0.25 0"/>
<feBlend mode="normal" in2="BackgroundImageFix" result="effect1_dropShadow_339_837"/>
<feBlend mode="normal" in="SourceGraphic" in2="effect1_dropShadow_339_837" result="shape"/>
</filter>
<filter id="filter4_d_339_837" x="619.498" y="431.609" width="313.003" height="374.996" filterUnits="userSpaceOnUse" color-interpolation-filters="sRGB">
<feFlood flood-opacity="0" result="BackgroundImageFix"/>
<feColorMatrix in="SourceAlpha" type="matrix" values="0 0 0 0 0 0 0 0 0 0 0 0 0 0 0 0 0 0 127 0" result="hardAlpha"/>
<feOffset dy="4"/>
<feGaussianBlur stdDeviation="2"/>
<feComposite in2="hardAlpha" operator="out"/>
<feColorMatrix type="matrix" values="0 0 0 0 0 0 0 0 0 0 0 0 0 0 0 0 0 0 0.25 0"/>
<feBlend mode="normal" in2="BackgroundImageFix" result="effect1_dropShadow_339_837"/>
<feBlend mode="normal" in="SourceGraphic" in2="effect1_dropShadow_339_837" result="shape"/>
</filter>
<filter id="filter5_d_339_837" x="744.5" y="575.605" width="29" height="41.001" filterUnits="userSpaceOnUse" color-interpolation-filters="sRGB">
<feFlood flood-opacity="0" result="BackgroundImageFix"/>
<feColorMatrix in="SourceAlpha" type="matrix" values="0 0 0 0 0 0 0 0 0 0 0 0 0 0 0 0 0 0 127 0" result="hardAlpha"/>
<feOffset dy="4"/>
<feGaussianBlur stdDeviation="2"/>
<feComposite in2="hardAlpha" operator="out"/>
<feColorMatrix type="matrix" values="0 0 0 0 0 0 0 0 0 0 0 0 0 0 0 0 0 0 0.25 0"/>
<feBlend mode="normal" in2="BackgroundImageFix" result="effect1_dropShadow_339_837"/>
<feBlend mode="normal" in="SourceGraphic" in2="effect1_dropShadow_339_837" result="shape"/>
</filter>
<filter id="filter6_d_339_837" x="724.25" y="545.355" width="77.5" height="95.5166" filterUnits="userSpaceOnUse" color-interpolation-filters="sRGB">
<feFlood flood-opacity="0" result="BackgroundImageFix"/>
<feColorMatrix in="SourceAlpha" type="matrix" values="0 0 0 0 0 0 0 0 0 0 0 0 0 0 0 0 0 0 127 0" result="hardAlpha"/>
<feOffset dy="4"/>
<feGaussianBlur stdDeviation="2"/>
<feComposite in2="hardAlpha" operator="out"/>
<feColorMatrix type="matrix" values="0 0 0 0 0 0 0 0 0 0 0 0 0 0 0 0 0 0 0.25 0"/>
<feBlend mode="normal" in2="BackgroundImageFix" result="effect1_dropShadow_339_837"/>
<feBlend mode="normal" in="SourceGraphic" in2="effect1_dropShadow_339_837" result="shape"/>
</filter>
<linearGradient id="paint0_linear_339_837" x1="766.238" y1="519.901" x2="754.879" y2="692.64" gradientUnits="userSpaceOnUse">
<stop stop-color="#FDCD54"/>
<stop offset="1" stop-color="#DBF39D"/>
</linearGradient>
<linearGradient id="paint1_linear_339_837" x1="937.998" y1="194.347" x2="688.112" y2="1248.91" gradientUnits="userSpaceOnUse">
<stop stop-color="#FDCD54"/>
<stop offset="1" stop-color="#DBF39D"/>
</linearGradient>
<linearGradient id="paint2_linear_339_837" x1="743.304" y1="31.9711" x2="852.817" y2="2634.38" gradientUnits="userSpaceOnUse">
<stop stop-color="#FDCD54"/>
<stop offset="1" stop-color="#DBF39D"/>
</linearGradient>
<linearGradient id="paint3_linear_339_837" x1="852.908" y1="334.321" x2="755.786" y2="1005.29" gradientUnits="userSpaceOnUse">
<stop stop-color="#FDCD54"/>
<stop offset="1" stop-color="#DBF39D"/>
</linearGradient>
<linearGradient id="paint4_linear_339_837" x1="776" y1="434.105" x2="776" y2="888.519" gradientUnits="userSpaceOnUse">
<stop stop-color="#FDCD54"/>
<stop offset="1" stop-color="#DBF39D"/>
</linearGradient>
<linearGradient id="paint5_linear_339_837" x1="759" y1="576.105" x2="759" y2="608.105" gradientUnits="userSpaceOnUse">
<stop stop-color="#FDCD54"/>
<stop offset="1" stop-color="#DBF39D"/>
</linearGradient>
<linearGradient id="paint6_linear_339_837" x1="761.062" y1="546.105" x2="761.062" y2="632.105" gradientUnits="userSpaceOnUse">
<stop stop-color="#FDCD54"/>
<stop offset="1" stop-color="#DBF39D"/>
</linearGradient>
</defs>
</svg>
