<svg width="603" height="497" viewBox="0 0 603 497" fill="none" xmlns="http://www.w3.org/2000/svg">
<g filter="url(#filter0_d_172_175)">
<mask id="path-1-inside-1_172_175" fill="white">
<path d="M150.464 102.647C135.634 106.897 121.684 113.024 108.956 121.851C105.789 124.048 103.231 126.361 103.204 131.307C102.679 126.165 100.99 128.269 99.3171 129.803C88.6662 139.599 81.8111 151.788 76.3975 165.06C68.1202 185.359 62.9683 206.147 64.0107 228.24C64.9267 247.57 86.2909 269.287 103.791 268.536C117.14 267.963 128.668 258.419 130.942 246.114C132.5 237.645 129.006 230.903 123.75 224.738L124.067 224.487C132.509 230.449 135.976 243.28 131.937 253.639C124.401 272.967 101.035 280.2 83.7666 268.605C76.0517 263.425 71.1595 255.937 66.6113 247.569C65.6105 249.508 66.3398 251.025 66.5752 252.462C69.3908 269.754 73.2682 286.896 79.087 303.334C82.1684 312.033 80.7796 320.476 81.9421 328.974C82.414 332.389 81.8754 335.903 80.6532 339.266C81.7274 326.592 80.1165 314.316 75.7877 302.35C75.0377 307.984 74.2804 313.505 71.9148 318.705C65.3754 333.082 46.4364 335.968 36.8934 323.888C32.6313 318.5 31.8103 312.512 35.0684 306.198C34.2463 310.644 33.5499 315.074 35.9375 319.302C38.3853 323.634 42.084 326.201 46.8454 327.374C57.0987 329.89 66.1999 324.901 70.0615 314.311C73.4553 305.004 74.0141 295.533 71.1163 285.892C64.6807 264.508 58.6851 243.02 56.9521 220.612C56.495 214.791 56.2186 208.935 56.989 203.152C57.6715 198.044 56.7095 193.487 53.6755 189.474C52.1683 187.47 52.544 186.536 54.4397 185.211C59.0463 181.972 61.8619 177.712 63.6963 172.117C69.0059 155.924 75.6031 140.272 87.7731 127.705C92.7763 122.537 98.1557 117.824 104.157 113.861C106.072 112.591 106.535 111.777 103.862 110.676C107.788 111.096 110.916 109.585 114.091 107.797C124.553 101.903 135.806 97.8668 148.649 93.9938C144.672 93.1762 142.067 92.5386 139.428 92.1184C126.115 89.9838 113.465 86.066 102.417 78.0266C78.4941 60.6122 77.5177 26.9765 100.353 8.86396C115.381 -3.05389 137.674 -0.502288 149.574 14.5118C158.759 26.0988 157.55 42.7055 146.806 52.5538C139.41 59.3331 127.874 60.3714 120.522 54.919C114.825 50.6954 113.388 44.0295 117.016 38.7008C120.534 33.5539 127.261 32.1192 132.452 35.4222C137.95 38.9211 139.249 45.4667 135.642 51.6368C135.328 52.1744 134.948 52.6784 134.506 53.3428C145.041 52.7012 153.872 41.4287 153.384 29.5981C152.649 11.5708 132.614 -0.817759 114.39 5.49157C94.9456 12.2239 85.4291 37.2093 94.5747 57.1802C101.084 71.4024 113.521 78.0941 127.194 83.2431C137.732 87.2064 148.737 88.9991 159.913 89.8574C162.898 90.0832 165.841 89.8716 168.833 89.2718C186.8 85.6558 204.923 82.7152 223.158 81.2677C232.79 80.5017 237.657 75.4993 240.504 67.56C241.697 64.2422 243.142 63.9166 245.861 64.8941C255.838 68.4563 263.656 65.7859 270.491 57.615C276.58 50.3423 282.904 43.2709 288.689 35.7416C297.898 23.7709 306.841 11.6537 317.574 0.864004C329.504 -11.1293 351.257 -29.7909 365.376 -38.1795C389.171 -52.3174 415.049 -58.9112 442.594 -58.9143C451.639 -58.9128 459.723 -61.1404 466.824 -66.5819C468.967 -68.2138 469.873 -67.5579 471.103 -65.845C476.326 -58.5743 483.39 -55.2945 492.292 -53.5051C526.801 -46.5635 559.228 -33.4652 590.849 -18.2863C596.015 -15.8051 597.891 -11.1725 595.803 -6.87498C593.574 -2.28992 588.858 -1.10522 583.403 -3.76839C582.957 -3.9826 582.549 -4.28092 582.095 -4.50693C577.491 -6.84194 572.988 -9.42158 568.245 -11.4279C562.77 -13.7479 559.766 -7.33135 554.046 -7.06789C557.212 -9.40824 559.823 -11.3318 562.725 -13.4814C559.787 -16.2193 556.226 -17.1249 553.009 -18.5621C524.149 -31.4786 494.478 -41.642 462.939 -45.8494C453.819 -47.0712 445.71 -46.1146 437.576 -41.5593C411.852 -27.1748 389.455 -9.30899 374.482 16.6473C370.437 23.6565 367.908 31.1915 367.288 39.3232C366.477 49.9681 368.732 54.1987 378.619 58.0487C382.069 59.391 382.5 60.623 381.77 64.0767C378.219 80.7022 377.654 81.3621 393.727 91.5269C417.76 106.718 446.274 97.93 456.936 72.935C465.975 51.7616 453.214 28.9138 430.439 25.5791C429.575 27.3003 431.321 27.8431 431.989 28.7665C438.073 37.2146 437.418 48.1467 430.311 55.3022C423.293 62.3738 412.231 63.346 404.254 57.6019C395.842 51.5438 393.352 40.7105 398.21 31.3366C404.924 18.3935 422.792 12.8687 437.97 19.0417C461.655 28.6787 470.422 56.6472 457.188 80.3987C442.548 106.669 410.077 114.888 382.526 99.2801C351.244 81.5575 341.467 43.203 360.544 11.342C376.594 -15.4754 400.75 -32.612 429.125 -44.3993C430.353 -44.9124 431.593 -45.3823 432.812 -45.8975C432.934 -45.9439 432.982 -46.179 433.196 -46.574C430.693 -47.2621 428.291 -46.6533 425.925 -46.4659C391.853 -43.813 363.583 -28.6147 338.71 -6.10239C338.219 -5.65199 337.736 -5.18979 337.238 -4.7512C332.465 -0.471369 329.864 5.10928 329.436 11.9908C328.831 8.8751 328.435 6.78237 327.841 3.70992C324.053 7.29032 320.502 10.4091 317.222 13.7981C307.356 24.0002 299.358 35.7401 290.407 46.7021C282.492 56.3969 274.231 65.7447 264.26 73.4241C253.864 81.4346 242.282 86.4244 229.178 87.9877C218.283 89.2903 207.433 90.9186 196.581 92.4548C192.722 92.9989 188.869 93.6156 185.043 94.3501C178.635 95.5748 171.735 95.6672 166.989 101.47C167.669 100.446 168.359 99.4243 169.464 97.7731C162.641 98.8817 156.635 100.587 150.705 102.614L150.444 102.642L150.464 102.647Z"/>
</mask>
<path d="M150.464 102.647C135.634 106.897 121.684 113.024 108.956 121.851C105.789 124.048 103.231 126.361 103.204 131.307C102.679 126.165 100.99 128.269 99.3171 129.803C88.6662 139.599 81.8111 151.788 76.3975 165.06C68.1202 185.359 62.9683 206.147 64.0107 228.24C64.9267 247.57 86.2909 269.287 103.791 268.536C117.14 267.963 128.668 258.419 130.942 246.114C132.5 237.645 129.006 230.903 123.75 224.738L124.067 224.487C132.509 230.449 135.976 243.28 131.937 253.639C124.401 272.967 101.035 280.2 83.7666 268.605C76.0517 263.425 71.1595 255.937 66.6113 247.569C65.6105 249.508 66.3398 251.025 66.5752 252.462C69.3908 269.754 73.2682 286.896 79.087 303.334C82.1684 312.033 80.7796 320.476 81.9421 328.974C82.414 332.389 81.8754 335.903 80.6532 339.266C81.7274 326.592 80.1165 314.316 75.7877 302.35C75.0377 307.984 74.2804 313.505 71.9148 318.705C65.3754 333.082 46.4364 335.968 36.8934 323.888C32.6313 318.5 31.8103 312.512 35.0684 306.198C34.2463 310.644 33.5499 315.074 35.9375 319.302C38.3853 323.634 42.084 326.201 46.8454 327.374C57.0987 329.89 66.1999 324.901 70.0615 314.311C73.4553 305.004 74.0141 295.533 71.1163 285.892C64.6807 264.508 58.6851 243.02 56.9521 220.612C56.495 214.791 56.2186 208.935 56.989 203.152C57.6715 198.044 56.7095 193.487 53.6755 189.474C52.1683 187.47 52.544 186.536 54.4397 185.211C59.0463 181.972 61.8619 177.712 63.6963 172.117C69.0059 155.924 75.6031 140.272 87.7731 127.705C92.7763 122.537 98.1557 117.824 104.157 113.861C106.072 112.591 106.535 111.777 103.862 110.676C107.788 111.096 110.916 109.585 114.091 107.797C124.553 101.903 135.806 97.8668 148.649 93.9938C144.672 93.1762 142.067 92.5386 139.428 92.1184C126.115 89.9838 113.465 86.066 102.417 78.0266C78.4941 60.6122 77.5177 26.9765 100.353 8.86396C115.381 -3.05389 137.674 -0.502288 149.574 14.5118C158.759 26.0988 157.55 42.7055 146.806 52.5538C139.41 59.3331 127.874 60.3714 120.522 54.919C114.825 50.6954 113.388 44.0295 117.016 38.7008C120.534 33.5539 127.261 32.1192 132.452 35.4222C137.95 38.9211 139.249 45.4667 135.642 51.6368C135.328 52.1744 134.948 52.6784 134.506 53.3428C145.041 52.7012 153.872 41.4287 153.384 29.5981C152.649 11.5708 132.614 -0.817759 114.39 5.49157C94.9456 12.2239 85.4291 37.2093 94.5747 57.1802C101.084 71.4024 113.521 78.0941 127.194 83.2431C137.732 87.2064 148.737 88.9991 159.913 89.8574C162.898 90.0832 165.841 89.8716 168.833 89.2718C186.8 85.6558 204.923 82.7152 223.158 81.2677C232.79 80.5017 237.657 75.4993 240.504 67.56C241.697 64.2422 243.142 63.9166 245.861 64.8941C255.838 68.4563 263.656 65.7859 270.491 57.615C276.58 50.3423 282.904 43.2709 288.689 35.7416C297.898 23.7709 306.841 11.6537 317.574 0.864004C329.504 -11.1293 351.257 -29.7909 365.376 -38.1795C389.171 -52.3174 415.049 -58.9112 442.594 -58.9143C451.639 -58.9128 459.723 -61.1404 466.824 -66.5819C468.967 -68.2138 469.873 -67.5579 471.103 -65.845C476.326 -58.5743 483.39 -55.2945 492.292 -53.5051C526.801 -46.5635 559.228 -33.4652 590.849 -18.2863C596.015 -15.8051 597.891 -11.1725 595.803 -6.87498C593.574 -2.28992 588.858 -1.10522 583.403 -3.76839C582.957 -3.9826 582.549 -4.28092 582.095 -4.50693C577.491 -6.84194 572.988 -9.42158 568.245 -11.4279C562.77 -13.7479 559.766 -7.33135 554.046 -7.06789C557.212 -9.40824 559.823 -11.3318 562.725 -13.4814C559.787 -16.2193 556.226 -17.1249 553.009 -18.5621C524.149 -31.4786 494.478 -41.642 462.939 -45.8494C453.819 -47.0712 445.71 -46.1146 437.576 -41.5593C411.852 -27.1748 389.455 -9.30899 374.482 16.6473C370.437 23.6565 367.908 31.1915 367.288 39.3232C366.477 49.9681 368.732 54.1987 378.619 58.0487C382.069 59.391 382.5 60.623 381.77 64.0767C378.219 80.7022 377.654 81.3621 393.727 91.5269C417.76 106.718 446.274 97.93 456.936 72.935C465.975 51.7616 453.214 28.9138 430.439 25.5791C429.575 27.3003 431.321 27.8431 431.989 28.7665C438.073 37.2146 437.418 48.1467 430.311 55.3022C423.293 62.3738 412.231 63.346 404.254 57.6019C395.842 51.5438 393.352 40.7105 398.21 31.3366C404.924 18.3935 422.792 12.8687 437.97 19.0417C461.655 28.6787 470.422 56.6472 457.188 80.3987C442.548 106.669 410.077 114.888 382.526 99.2801C351.244 81.5575 341.467 43.203 360.544 11.342C376.594 -15.4754 400.75 -32.612 429.125 -44.3993C430.353 -44.9124 431.593 -45.3823 432.812 -45.8975C432.934 -45.9439 432.982 -46.179 433.196 -46.574C430.693 -47.2621 428.291 -46.6533 425.925 -46.4659C391.853 -43.813 363.583 -28.6147 338.71 -6.10239C338.219 -5.65199 337.736 -5.18979 337.238 -4.7512C332.465 -0.471369 329.864 5.10928 329.436 11.9908C328.831 8.8751 328.435 6.78237 327.841 3.70992C324.053 7.29032 320.502 10.4091 317.222 13.7981C307.356 24.0002 299.358 35.7401 290.407 46.7021C282.492 56.3969 274.231 65.7447 264.26 73.4241C253.864 81.4346 242.282 86.4244 229.178 87.9877C218.283 89.2903 207.433 90.9186 196.581 92.4548C192.722 92.9989 188.869 93.6156 185.043 94.3501C178.635 95.5748 171.735 95.6672 166.989 101.47C167.669 100.446 168.359 99.4243 169.464 97.7731C162.641 98.8817 156.635 100.587 150.705 102.614L150.444 102.642L150.464 102.647Z" stroke="url(#paint0_linear_172_175)" stroke-width="8" mask="url(#path-1-inside-1_172_175)"/>
<path d="M535.008 24.4593C516.473 33.4818 491.179 32.6637 473.433 22.5844C483.28 18.365 490.315 11.0268 496.843 3.63908L499.968 0.077268C504.717 -5.33744 510.537 -9.42563 517.198 -12.2703L517.845 -12.5421L517.846 -12.5428C528.284 -16.8491 539.936 -12.1545 544.563 -1.86964L544.564 -1.86945C547.648 4.98991 548.251 9.94054 546.834 13.846C545.461 17.63 542.002 20.9526 535.634 24.1494L535.008 24.4584L535.008 24.4593Z" stroke="url(#paint1_linear_172_175)" stroke-width="4"/>
<path d="M184.707 174.22C176.196 162.556 168.172 151.758 168.194 137.166L168.204 136.369C168.378 128.179 170.266 120.367 174.199 113.189L174.586 112.496L174.587 112.495C176.633 108.898 179.204 105.975 182.712 104.057C185.806 102.369 188.742 102.398 190.944 103.498C193.073 104.561 194.786 106.759 195.304 110.037L195.35 110.359L195.411 110.856C195.933 115.656 194.866 120.369 193.228 125.074L192.882 126.046L192.88 126.05C187.273 141.55 183.265 157.437 184.707 174.22Z" stroke="url(#paint2_linear_172_175)" stroke-width="4"/>
<path d="M232.681 1.93834C241.659 -7.25449 250.213 -13.4306 259.157 -16.9918C270.016 -21.3157 281.652 -21.8653 295.653 -18.9869C300.665 -17.9563 305.157 -15.9541 308.792 -12.52L309.141 -12.183L309.144 -12.1793L309.532 -11.7946C311.337 -9.96818 312.211 -8.60193 311.81 -6.92054L311.764 -6.74555L311.762 -6.74096C311.062 -4.28429 309.341 -2.76748 306.693 -2.08738L306.15 -1.96254L306.146 -1.96142C303.299 -1.37052 300.425 -1.42292 297.377 -1.61187L294.265 -1.82796L294.262 -1.8274C290.292 -2.10403 286.321 -2.41392 282.34 -2.72417C279.357 -2.95669 276.369 -3.18914 273.378 -3.40835L270.385 -3.62284L270.384 -3.62304C257.34 -4.52339 244.776 -2.60201 232.681 1.93834Z" stroke="url(#paint3_linear_172_175)" stroke-width="4"/>
<path d="M324.85 77.7222C324.955 70.2894 323 63.3065 321.009 56.6268L319.953 53.0827L319.952 53.0816C318.155 46.9889 317.603 40.7098 317.919 34.326L317.993 33.0472L317.993 33.0463C318.279 28.7771 319.64 25.0315 322.461 21.9909L322.739 21.6991C325.547 18.8237 329.014 17.9526 332.004 18.6231C334.988 19.2921 337.694 21.538 338.911 25.3339L338.912 25.3341C341.36 32.9776 340.603 40.8145 339.016 48.8546L338.688 50.4651L338.688 50.466C336.524 60.8256 331.989 69.9192 324.85 77.7222Z" stroke="url(#paint4_linear_172_175)" stroke-width="4"/>
<path d="M113.545 182.459C108.484 178.528 103.73 174.962 99.2638 171.058L98.1859 170.103L98.1849 170.103C92.2966 164.828 89.5132 158.064 90.0298 150.162L90.09 149.393L90.0902 149.393C90.6533 143.19 94.5324 139.237 98.6667 139.144L99.0667 139.148C102.565 139.282 105.421 139.942 107.54 141.321C109.454 142.567 110.944 144.515 111.7 147.672L111.841 148.319C114.034 159.417 113.5 170.541 113.545 182.459Z" stroke="url(#paint5_linear_172_175)" stroke-width="4"/>
<path d="M44.6237 111.086C48.6113 108 51.6334 104.432 54.5967 101.391L55.3856 100.595L55.3858 100.594C59.6686 96.3371 66.054 94.0908 72.5958 94.0373C78.9333 93.9855 85.1672 95.9938 89.5207 99.9097L89.9361 100.294L89.9386 100.297L90.2678 100.626C90.8087 101.192 91.3134 101.848 91.8148 102.567L92.4172 103.458C94.7329 106.999 95.3848 110.387 93.4655 113.489C92.596 114.889 91.4142 115.575 89.9342 115.909C88.5557 116.219 86.9845 116.21 85.2447 116.111L84.4886 116.064L84.4867 116.064C80.9943 115.834 77.6561 114.55 74.1564 113.055L74.1566 113.054C66.7584 109.882 59.1955 108.674 51.0643 110.407L51.0635 110.406C48.9817 110.849 46.8986 111.174 44.6237 111.086Z" stroke="url(#paint6_linear_172_175)" stroke-width="4"/>
<path d="M233.134 133.66C221.537 131.14 211.892 128.899 206.285 118.558L206.285 118.557C204.828 115.865 203.78 113.251 203.553 110.442L203.553 110.441C203.112 104.88 205.906 100.884 210.599 99.6603C213.705 98.8545 216.051 98.977 217.842 99.7986C219.499 100.559 220.971 102.052 222.162 104.65L222.396 105.183C224.189 109.458 225.664 113.876 227.11 118.368L228.557 122.88C229.708 126.487 231.148 129.959 233.134 133.66Z" stroke="url(#paint7_linear_172_175)" stroke-width="4"/>
<path d="M38.1494 399.822C42.0696 394.628 43.4496 388.733 45.3229 383.901C47.0064 379.577 49.1674 376.676 51.5165 375.035C53.8096 373.433 56.4104 372.936 59.3008 373.629L59.3018 373.629C63.5447 374.653 65.9869 376.994 66.8322 379.549C67.6473 382.013 67.1353 385.152 64.5158 388.29L64.256 388.594L64.2558 388.595C57.4439 396.358 48.9461 399.795 38.1494 399.822Z" stroke="url(#paint8_linear_172_175)" stroke-width="4"/>
<path d="M133.377 128.941C137.617 124.841 139.785 119.616 141.995 115.151L142.551 114.047L142.552 114.045C144.501 110.258 147.714 107.656 151.266 104.596C155.444 104.404 158.648 104.614 161.266 107.354L161.526 107.637C163.286 109.631 164.027 111.288 164.107 112.766C164.181 114.128 163.708 115.673 162.308 117.555L162.015 117.937C155.886 125.682 144.431 130.147 133.377 128.941Z" stroke="url(#paint9_linear_172_175)" stroke-width="4"/>
<path d="M261.711 17.3859C261.948 17.1695 262.204 16.9842 262.49 16.8242L262.746 16.6903C271.176 12.5719 279.258 8.68229 288.311 7.95554L289.19 7.89515L289.2 7.89405C289.869 7.85269 290.13 7.8075 290.521 7.81572L290.553 7.81628C293.422 7.83169 295.765 8.46525 297.389 9.43305C298.995 10.391 299.818 11.6108 299.996 12.8962L299.995 12.896C300.122 13.8274 299.773 14.8595 298.46 15.9243C297.19 16.9535 295.136 17.8891 292.284 18.4911L291.703 18.6069L291.702 18.6067C283.653 20.1267 275.608 19.9462 267.605 18.1919L266.831 18.0177C265.582 17.7284 263.913 17.2738 262.173 17.3503C262.019 17.3571 261.865 17.371 261.711 17.3859Z" stroke="url(#paint10_linear_172_175)" stroke-width="4"/>
<path d="M96.4523 377.695C95.3217 377.197 94.1864 376.81 93.0727 376.481C91.9946 376.164 90.9134 375.894 89.8805 375.637C89.0957 375.441 88.339 375.252 87.5975 375.05L86.8606 374.841L86.8568 374.841C84.4018 374.126 82.2367 372.91 80.4389 371.137L80.4387 371.138C78.6985 369.418 77.9853 367.744 77.9485 366.287C77.9123 364.853 78.5238 363.292 80.1176 361.745C81.9579 359.963 83.6033 359.334 85.0089 359.383C86.3312 359.43 87.8375 360.089 89.4639 361.748L89.7907 362.093L89.7914 362.094L90.2194 362.573C93.8821 366.771 96.0529 371.958 96.4523 377.695Z" stroke="url(#paint11_linear_172_175)" stroke-width="4"/>
<path d="M101.376 249.148C100.446 249.387 99.2206 249.279 97.6936 248.69L97.6938 248.689C96.4538 248.21 95.3361 247.428 94.3847 246.411L95.6405 244.725C96.095 244.115 96.3668 243.723 96.6973 243.309L96.7025 243.303L96.7067 243.297C97.7418 241.981 98.7261 241.364 99.576 241.183C100.322 241.025 101.255 241.14 102.436 241.909L102.675 242.072L102.678 242.073L102.857 242.205C103.727 242.867 104.169 243.595 104.331 244.286C104.492 244.976 104.419 245.821 103.931 246.797L103.828 246.994L103.826 246.999C103.09 248.35 102.234 248.928 101.376 249.148Z" stroke="url(#paint12_linear_172_175)" stroke-width="4"/>
<path d="M52.921 314.809C52.2395 314.842 51.4789 314.649 50.6097 313.962L50.434 313.817C49.637 313.137 49.2256 312.433 49.0671 311.766C48.9099 311.105 48.9628 310.318 49.3713 309.394C49.8759 308.263 50.5178 307.655 51.1872 307.341C51.7898 307.058 52.5892 306.933 53.636 307.088L54.1004 307.171L54.1119 307.174C54.4217 307.237 54.755 307.341 55.1934 307.495C55.5985 307.637 56.1512 307.843 56.7214 308.025L58.0732 308.458C58.1042 310.596 57.2323 312.524 55.7128 313.634L55.7136 313.635C54.6341 314.422 53.7038 314.771 52.921 314.809Z" stroke="url(#paint13_linear_172_175)" stroke-width="4"/>
</g>
<defs>
<filter id="filter0_d_172_175" x="29.074" y="-69.4562" width="571.567" height="479.281" filterUnits="userSpaceOnUse" color-interpolation-filters="sRGB">
<feFlood flood-opacity="0" result="BackgroundImageFix"/>
<feColorMatrix in="SourceAlpha" type="matrix" values="0 0 0 0 0 0 0 0 0 0 0 0 0 0 0 0 0 0 127 0" result="hardAlpha"/>
<feOffset dy="4"/>
<feGaussianBlur stdDeviation="2"/>
<feComposite in2="hardAlpha" operator="out"/>
<feColorMatrix type="matrix" values="0 0 0 0 0 0 0 0 0 0 0 0 0 0 0 0 0 0 0.25 0"/>
<feBlend mode="normal" in2="BackgroundImageFix" result="effect1_dropShadow_172_175"/>
<feBlend mode="normal" in="SourceGraphic" in2="effect1_dropShadow_172_175" result="shape"/>
</filter>
<linearGradient id="paint0_linear_172_175" x1="361.387" y1="-89.6577" x2="265.395" y2="377.247" gradientUnits="userSpaceOnUse">
<stop stop-color="#DBF39D"/>
<stop offset="1" stop-color="#FDCD54"/>
</linearGradient>
<linearGradient id="paint1_linear_172_175" x1="516.464" y1="-18.5281" x2="505.628" y2="34.1794" gradientUnits="userSpaceOnUse">
<stop stop-color="#DBF39D"/>
<stop offset="1" stop-color="#FDCD54"/>
</linearGradient>
<linearGradient id="paint2_linear_172_175" x1="188.005" y1="100.603" x2="172.214" y2="177.408" gradientUnits="userSpaceOnUse">
<stop stop-color="#DBF39D"/>
<stop offset="1" stop-color="#FDCD54"/>
</linearGradient>
<linearGradient id="paint3_linear_172_175" x1="274.755" y1="-25.3254" x2="266.353" y2="15.5399" gradientUnits="userSpaceOnUse">
<stop stop-color="#DBF39D"/>
<stop offset="1" stop-color="#FDCD54"/>
</linearGradient>
<linearGradient id="paint4_linear_172_175" x1="333.352" y1="16.8573" x2="319.857" y2="82.4962" gradientUnits="userSpaceOnUse">
<stop stop-color="#DBF39D"/>
<stop offset="1" stop-color="#FDCD54"/>
</linearGradient>
<linearGradient id="paint5_linear_172_175" x1="107.823" y1="138.533" x2="98.658" y2="183.112" gradientUnits="userSpaceOnUse">
<stop stop-color="#DBF39D"/>
<stop offset="1" stop-color="#FDCD54"/>
</linearGradient>
<linearGradient id="paint6_linear_172_175" x1="72.1006" y1="91.24" x2="66.6174" y2="117.91" gradientUnits="userSpaceOnUse">
<stop stop-color="#DBF39D"/>
<stop offset="1" stop-color="#FDCD54"/>
</linearGradient>
<linearGradient id="paint7_linear_172_175" x1="224.126" y1="98.8645" x2="217.211" y2="132.5" gradientUnits="userSpaceOnUse">
<stop stop-color="#DBF39D"/>
<stop offset="1" stop-color="#FDCD54"/>
</linearGradient>
<linearGradient id="paint8_linear_172_175" x1="55.8825" y1="370.878" x2="48.9133" y2="404.776" gradientUnits="userSpaceOnUse">
<stop stop-color="#DBF39D"/>
<stop offset="1" stop-color="#FDCD54"/>
</linearGradient>
<linearGradient id="paint9_linear_172_175" x1="151.534" y1="101.738" x2="145" y2="133.518" gradientUnits="userSpaceOnUse">
<stop stop-color="#DBF39D"/>
<stop offset="1" stop-color="#FDCD54"/>
</linearGradient>
<linearGradient id="paint10_linear_172_175" x1="282.747" y1="3.81205" x2="278.293" y2="25.4778" gradientUnits="userSpaceOnUse">
<stop stop-color="#DBF39D"/>
<stop offset="1" stop-color="#FDCD54"/>
</linearGradient>
<linearGradient id="paint11_linear_172_175" x1="90.2839" y1="358.362" x2="86.1325" y2="378.554" gradientUnits="userSpaceOnUse">
<stop stop-color="#DBF39D"/>
<stop offset="1" stop-color="#FDCD54"/>
</linearGradient>
<linearGradient id="paint12_linear_172_175" x1="109.012" y1="217.879" x2="102.045" y2="251.766" gradientUnits="userSpaceOnUse">
<stop stop-color="#DBF39D"/>
<stop offset="1" stop-color="#FDCD54"/>
</linearGradient>
<linearGradient id="paint13_linear_172_175" x1="51.8767" y1="298.052" x2="48.1925" y2="315.972" gradientUnits="userSpaceOnUse">
<stop stop-color="#DBF39D"/>
<stop offset="1" stop-color="#FDCD54"/>
</linearGradient>
</defs>
</svg>
