<svg width="583" height="755" viewBox="0 0 583 755" fill="none" xmlns="http://www.w3.org/2000/svg">
<g filter="url(#filter0_d_117_155)">
<path d="M84.4667 557.668C85.9071 552.58 97.0142 528.396 95.5374 500.389C94.6759 484.009 94.0696 475.014 87.3956 467.769C76.0418 455.457 61.7856 464.126 39.7539 452.974C34.7566 450.446 12.7502 439.307 8.71891 420.189C3.63988 396.101 30.3557 374.732 20.819 361.683C17.0506 356.52 10.5519 356.698 8.5933 350.02C6.95517 344.449 10.8559 342.242 12.7238 332.588C15.4174 318.67 9.11252 314.009 13.6168 306.493C16.7235 301.305 19.968 303.127 26.7821 295.586C30.8495 291.085 36.7403 282.64 34.2521 278.946C32.3735 276.161 27.6963 279.005 23.3989 276.374C16.4859 272.149 15.4182 256.759 20.9044 245.97C24.2912 239.3 28.981 236.763 45.6135 227.278C78.7053 208.41 81.6744 206.172 84.1823 202.221C88.8842 194.802 91.5946 181.863 81.4954 157.744C86.8749 146.625 95.8809 131.905 110.874 118.476C115.911 113.964 163.771 81.5932 168.5 78.5002C171.769 57.4431 166.873 59.8905 187.276 39.6838C251.843 -24.2696 408.459 3.96216 483.447 91.5671C536.794 153.888 539.544 235.426 540.524 263.789C541.953 305.175 542.427 281.584 540.15 304.038C542.073 322.847 558.028 328.797 564.453 337.332C576.744 359.52 531.149 370.728 538.369 376.568C548.012 384.367 556.37 371.142 572.164 381.741C580.333 387.223 563.3 419.814 550.353 413.266C543.16 409.628 530.569 409.703 528.998 413.99C526.839 419.891 547.49 428.664 549.277 441.078C549.194 459.101 541.309 458.105 534.508 460.52C524.033 462.948 515.72 463.153 511.253 470.275C506.581 477.715 543.732 486.635 541.33 502.892C540.796 506.527 539.535 515.058 533.27 522.022C525.199 530.997 517.603 527.614 512.639 534.667C506.54 543.331 543.507 553.31 540.098 569.59C537.63 581.385 549.166 595.979 537.498 600.447C529.045 603.682 512.247 599.468 509.879 602.859C504.473 610.578 541.219 628.765 536.859 645.633C534.222 655.832 512.061 653.245 504.128 663.858C485.885 688.274 541.684 684.694 527.648 697.565C535.459 714.483 507.679 745.934 494.146 741.737C458.388 730.655 435 702.841 440.543 684.55C444.651 670.995 448.42 671.753 456.847 653.354C464.466 636.714 417.924 627.03 427.398 613.934C435.276 603.046 439.44 601.072 443.627 591.926C450.087 577.804 423.875 576.107 427.042 544.884C435.423 534.815 441.017 538.803 444.69 530.956C448.628 522.557 427.144 517.151 427.529 503.103C428.091 482.549 418.36 480.484 415.959 470.873C414.132 463.547 391.314 492.477 375.663 501.777C350.952 516.46 371.438 555.709 351.962 594.361C319.513 658.771 171.984 662.495 143.343 662.792C122.75 663.003 61.9108 663.631 52.92 638.736C47.0418 622.461 69.1959 611.52 84.4766 557.656L84.4667 557.668Z" stroke="#D40B0B" stroke-width="8" stroke-miterlimit="10" stroke-linejoin="bevel" shape-rendering="crispEdges"/>
</g>
<defs>
<filter id="filter0_d_117_155" x="0.0732422" y="0.896484" width="582.224" height="753.224" filterUnits="userSpaceOnUse" color-interpolation-filters="sRGB">
<feFlood flood-opacity="0" result="BackgroundImageFix"/>
<feColorMatrix in="SourceAlpha" type="matrix" values="0 0 0 0 0 0 0 0 0 0 0 0 0 0 0 0 0 0 127 0" result="hardAlpha"/>
<feOffset dy="4"/>
<feGaussianBlur stdDeviation="2"/>
<feComposite in2="hardAlpha" operator="out"/>
<feColorMatrix type="matrix" values="0 0 0 0 0 0 0 0 0 0 0 0 0 0 0 0 0 0 0.25 0"/>
<feBlend mode="normal" in2="BackgroundImageFix" result="effect1_dropShadow_117_155"/>
<feBlend mode="normal" in="SourceGraphic" in2="effect1_dropShadow_117_155" result="shape"/>
</filter>
</defs>
</svg>
