<svg width="538" height="666" viewBox="0 0 538 666" fill="none" xmlns="http://www.w3.org/2000/svg">
<path d="M97.8622 497.659C117.285 498.211 131.197 513.02 148.276 531.195C166.166 550.231 178.082 562.915 183.021 582.484C192.382 619.558 166.078 639.225 177.571 653.501C194.609 674.668 266.197 648.497 297.475 637.062C317.517 629.737 329.338 625.41 344.482 616.02C376.631 596.076 379.425 580.781 407.159 571.963C424.041 566.598 437.394 567.696 439.86 560.127C441.863 553.979 434.655 548.331 426.916 538.428C410.661 517.642 397.907 485.606 406.478 466.096C412.119 453.254 425.662 448.901 436.454 443.739C478.59 423.578 498.77 381.422 516.162 345.105C558.885 255.873 520.488 100.183 413.291 49.2017C378.45 32.6312 343.46 30.5073 317.231 32.1051C308.211 26.0424 294.702 18.224 277.036 12.3783C228.264 -3.7583 185.051 7.51889 167.352 12.3783C161.929 13.8709 43.4559 47.742 25.6475 137.973C18.6849 173.264 23.9102 224.284 44.0418 236.607C46.0107 237.817 51.7606 240.874 54.2609 247.128C55.8346 251.067 56.7202 257.78 44.0418 280.006C36.4729 293.276 31.3157 302.317 21.5599 313.542C12.5262 323.931 7.52569 327.028 5.20937 335.899C4.68479 337.917 1.37381 350.595 8.61572 357.598C14.8085 363.589 25.7906 362.615 30.4164 362.201C38.9731 361.438 43.1698 358.466 44.7231 360.229C46.9576 362.767 38.9459 369.737 36.5478 379.298C34.7288 386.544 35.778 396.743 46.0856 410.861C44.3892 412.557 42.2841 415.174 41.3167 418.752C39.3955 425.873 43.415 431.587 45.4043 436.506C52.3056 453.569 35.56 462.959 41.3167 478.59C47.2301 494.654 70.3184 499.448 71.2926 499.632C83.2898 501.933 86.7915 497.343 97.8622 497.659Z" fill="white" stroke="#C40000" stroke-width="8" stroke-miterlimit="10" stroke-linejoin="bevel"/>
</svg>
