<svg width="225" height="285" viewBox="0 0 225 285" fill="none" xmlns="http://www.w3.org/2000/svg">
<path d="M16.7166 83.4599C16.4667 84.8858 16.2221 86.1428 16.1178 87.4125C15.6701 92.7388 15.2782 98.0723 14.9186 103.409C14.6022 108.127 14.1904 112.844 14.1329 117.564C14.0915 120.843 14.7118 124.129 14.7873 127.415C14.8305 129.393 14.5824 131.424 14.1419 133.356C12.7251 139.541 11.1698 145.693 9.64875 151.852C7.831 159.219 5.95933 166.571 4.17394 173.944C3.29474 177.572 5.85323 180.181 9.48153 179.317C11.2759 178.888 12.9516 177.951 14.7496 177.53C17.6227 176.861 20.5175 176.778 23.2504 178.245C24.7751 179.062 26.3411 179.481 27.7471 178.084C29.1729 176.665 29.3401 174.206 28.2739 172.351C28.0006 171.875 27.7723 171.374 27.5098 170.863C28.5328 170.34 29.1117 170.705 29.5774 171.435C31.0697 173.763 30.7191 177.52 28.7288 179.416C27.0675 180.998 25.1868 180.479 23.3691 179.703C20.5642 178.504 17.727 177.899 14.737 178.963C14.6507 178.996 14.577 179.059 14.2965 179.226C15.3141 179.612 16.2059 179.939 17.0869 180.292C20.6649 181.727 21.6232 183.48 20.8717 187.199C20.3539 189.77 20.4204 189.621 22.8297 190.679C25.1868 191.712 27.445 192.997 29.6368 194.35C31.1309 195.271 32.6196 195.822 34.3744 195.625C34.8005 195.578 35.2896 195.477 35.6492 195.636C36.0034 195.788 36.2263 196.241 36.505 196.559C36.2263 196.735 35.9638 196.993 35.6582 197.072C35.295 197.158 34.894 197.101 34.5111 197.086C32.4937 197 30.5088 197.069 28.5939 197.877C27.997 198.13 27.2886 198.168 26.627 198.205C25.0448 198.3 24.5881 198.697 24.4406 200.222C24.3112 201.59 24.9926 202.732 26.1343 203.047C30.6238 204.289 32.6771 208.24 31.1417 212.683C30.5339 214.443 29.7482 216.163 29.3563 217.97C28.2164 223.253 30.5375 227.168 34.6495 230.21C37.9596 232.654 41.8881 233.46 45.8472 233.805C52.1293 234.354 58.433 234.624 64.7295 235.019C67.2035 235.172 69.6937 235.197 72.1371 235.549C74.417 235.875 75.6162 237.325 75.6036 239.604C75.5928 242.031 75.4634 244.477 75.1577 246.887C74.0915 255.347 73.527 263.836 73.9854 272.353C74.1401 275.241 74.4367 278.123 74.7658 281H190.231C190.483 279.211 190.278 277.378 189.739 275.494C187.177 266.499 184.573 257.509 182.383 248.421C180.979 242.599 179.801 236.639 179.433 230.684C179.213 227.082 177.863 224.004 177.065 220.68C176.82 219.661 176.471 218.654 176.344 217.621C176.286 217.138 176.644 216.607 176.813 216.093C177.131 216.512 177.577 216.881 177.741 217.354C178.539 219.652 179.152 222.019 180.031 224.285C182.55 230.788 187.556 234.516 194.192 235.795C201.916 237.285 208.856 235.021 214.628 229.791C218.646 226.149 220.595 221.301 220.944 215.896C221.446 208.095 218.513 201.328 214.378 194.962C210.707 189.307 206.037 184.76 199.771 182.032C197.538 181.059 195.23 180.375 192.86 179.953M16.7166 83.4599C17.8259 85.8627 18.6961 88.4468 20.2622 90.503C23.4985 94.7483 28.1696 96.0915 33.4089 95.5707C35.6779 95.3427 37.9739 94.8003 40.2106 94.9727C43.3139 95.2134 45.4265 97.3917 47.3072 99.6956C49.4252 102.291 51.4875 104.905 54.2941 106.852C56.0166 108.048 57.7786 108.91 59.6035 109.377C59.0407 108.725 58.3233 108.15 57.5772 107.73C53.2639 105.316 49.9376 101.863 47.0105 97.9663C44.5167 94.6405 41.3631 93.1482 37.1181 94.1431C35.2338 94.583 33.2219 94.8021 31.2981 94.6764C25.9761 94.3209 21.8048 91.9396 19.2912 87.0784C18.5217 85.5969 17.8331 84.0759 16.9287 82.2029C16.8604 82.6375 16.7885 83.0559 16.7166 83.4599ZM16.7166 83.4599C16.6231 83.2552 16.5278 83.0523 16.4289 82.8512C16.2203 82.4274 15.9812 82.0197 15.76 81.6049C15.618 81.6139 15.4778 81.6246 15.3357 81.6336C14.8736 83.1008 14.4062 84.5644 13.9315 86.0638C10.8066 81.7342 10.118 77.3399 13.0865 72.775C14.239 71.0044 14.4763 69.1637 13.9045 67.165C13.3094 65.0621 13.6348 63.0939 14.8665 61.282C16.828 58.3997 19.5556 56.5483 22.8243 55.46C24.8847 54.7794 26.9488 54.4795 29.1657 54.7812C30.8917 55.0165 32.7526 54.3736 34.4427 54.6897C39.4411 55.6253 43.6232 56.586 45.6854 57.4336C51.6475 59.8831 75.8392 69.5857 75.9308 69.3953C76.0172 69.2176 57.0144 56.4693 29.5001 53.1076C28.7504 53.016 28.1031 52.9441 27.5997 52.8921C27.9161 50.0583 28.3027 47.4149 28.4789 44.7572C28.6479 42.2053 28.6892 39.6392 28.6155 37.0856C28.5346 34.2141 28.4303 32.7811 28.0833 30.8201C27.49 27.4709 26.7708 26.3935 27.4396 25.1903C28.317 23.61 30.453 23.8524 32.1143 23.2149C38.7524 20.6721 38.1753 3.99641 38.9466 4C39.4213 4.00359 35.304 21.7801 43.2618 28.7818C46.7247 31.8293 49.2886 30.0335 57.8253 33.81C62.2951 35.7872 64.6162 37.6171 71.5025 42.6633C77.8079 47.282 81.9792 50.8826 82.4287 50.4103C82.7901 50.0296 80.6667 47.106 79.6365 45.8131C79.3775 45.488 79.1564 45.2259 79 45.0445C79.9583 45.0445 80.6865 45.1253 81.3895 45.0337C87.8244 44.1933 94.2665 43.4085 100.68 42.4442C107.546 41.4116 114.418 41.4655 121.265 42.288C129.913 43.3277 138.412 45.154 146.571 48.3038C148.644 49.103 150.626 50.1445 152.648 51.0765L152.656 51.0909C153.377 51.3261 154.133 51.4788 154.808 51.8092C163.382 56.006 171.016 61.5118 178.066 67.9533C187.718 76.7688 193.732 87.7842 197.964 99.8968C199.917 105.483 201.283 111.239 201.931 117.161C202.47 122.078 202.884 127.022 202.006 131.878C200.994 137.497 199.582 143.057 198.101 148.573C196.537 154.399 194.929 160.181 195.208 166.301C195.316 168.596 195.402 170.918 195.165 173.194C194.969 175.052 194.431 176.92 193.761 178.674C193.563 179.193 193.259 179.633 192.86 179.953M192.86 179.953C191.711 179.748 190.549 179.605 189.374 179.522C187.236 179.369 185.089 179.206 182.951 179.274C182.32 179.296 181.614 179.605 181.036 180.009M192.86 179.953C192.308 180.398 191.573 180.614 190.675 180.492C189.066 180.276 187.446 180.118 185.828 180.003C184.208 179.886 182.568 179.712 181.036 180.009M181.036 180.009C179.812 180.244 178.66 180.779 177.64 181.883C177.441 182.101 177.23 182.293 177.013 182.462C178.331 182.101 179.483 181.368 180.578 180.373C180.716 180.246 180.871 180.124 181.036 180.009ZM158.655 179.933C160.718 180.829 162.701 181.907 164.756 182.821C167.241 183.932 169.858 183.871 172.491 183.503C172.868 183.451 173.255 183.36 173.629 183.392C174.92 183.5 176.049 183.21 177.011 182.462C176.313 182.652 175.572 182.738 174.767 182.706C172.82 182.629 170.801 183.122 168.929 182.758C166.57 182.3 164.323 181.251 162.043 180.416C160.939 180.016 159.871 179.531 158.488 178.962C153.621 174.605 151.152 172.463 151.086 172.535C151.016 172.61 153.54 175.076 158.655 179.933Z" stroke="#ABD916" stroke-width="8" stroke-miterlimit="10"/>
</svg>
