<svg width="601" height="771" viewBox="0 0 601 771" fill="none" xmlns="http://www.w3.org/2000/svg">
<path d="M4.49435 474.386C9.36839 454.237 14.478 434.137 19.4404 414.003C23.5929 397.167 27.8386 380.351 31.7065 363.446C32.909 358.165 33.5864 352.614 33.4686 347.21C33.2624 338.222 31.5739 329.245 31.6819 320.282C31.839 307.378 32.963 294.484 33.8269 281.589C34.8086 267.006 35.8786 252.428 37.0959 237.865C37.464 233.413 38.4555 229.01 39.3145 223.626C41.7834 228.745 43.6633 232.903 45.7641 236.952C52.626 250.239 64.0135 256.748 78.5424 257.715C83.7944 258.058 89.2918 257.464 94.4308 256.262C106.02 253.543 114.629 257.622 121.437 266.712C129.423 277.363 138.508 286.802 150.283 293.399C152.517 294.655 154.657 296.427 156.242 298.425C167.468 312.537 181.962 321.116 199.564 324.621C205.38 325.784 210.892 328.018 213.872 333.338C217.16 339.204 220.537 345.335 222.039 351.784C223.806 359.333 227.458 364.924 233.392 369.41C235.793 371.216 238.34 372.861 240.588 374.834C246.517 380.022 253.365 382.83 261.179 383.389C263.908 383.576 266.681 383.497 269.371 383.934C274.844 384.813 278.451 388.779 282.398 392.195C287.414 396.544 292.116 401.506 297.771 404.805C309.345 411.568 321.665 413.021 333.96 406.253C343.026 401.261 350.266 394.207 356.696 386.123C359.626 382.442 363.043 378.53 367.112 376.483C380.232 369.911 398.256 379.242 403.728 393.034C407.076 401.472 406.904 410.238 405.648 418.941C403.645 432.802 400.882 446.482 391.502 457.702C391.084 458.198 390.898 458.866 390.549 459.415C385.798 467.058 380.109 474.136 372.295 478.475C364.049 483.064 355.955 487.58 348.71 493.769C340.675 500.626 332.012 500.626 323.918 494.736C319.53 491.551 316.56 487.408 315.711 481.857C315.569 480.958 314.16 480.252 313.335 479.466C312.879 480.384 311.936 481.371 312.044 482.22C313.924 497.362 332.36 507.262 343.252 501.49C347.586 499.188 351.65 496.292 355.587 493.347C360.456 489.705 365.291 486.151 372.02 484.492C369.914 487.064 368.241 489.038 366.65 491.075C355.233 505.731 349.363 521.87 352.765 540.748C356.161 559.625 365.595 574.92 380.477 586.592C385.602 590.617 392.233 592.757 398.256 595.604C406.32 599.418 410.261 605.661 410.119 614.609C410.041 619.601 408.563 623.842 403.552 625.569C398.3 627.386 392.694 628.539 388.022 624.234C384.075 620.587 384.311 615.915 385.867 611.129C386.377 609.563 386.402 607.85 386.647 606.201C386.264 606.054 385.867 605.897 385.484 605.744C384.777 606.368 383.854 606.854 383.393 607.624C380.836 611.87 380.335 616.44 381.562 621.211C383.938 630.38 393.008 631.666 402.285 629.732C406.86 628.78 410.581 625.982 412.608 621.412C417.074 611.325 412.323 597.999 402.442 593.154C399.389 591.652 396.253 590.342 393.166 588.918C369.532 578.037 358.547 558.452 355.999 533.581C354.561 519.548 359.734 507.154 368.005 495.983C377.086 483.712 386.201 471.461 395.271 459.18C397.019 456.829 398.653 454.399 400.641 451.577C402.285 456.986 403.591 461.717 405.152 466.366C411.395 484.915 406.678 499.664 390.667 510.978C378.219 519.774 371.804 531.436 373.993 546.878C375.839 559.9 381.626 570.959 391.968 579.347C393.092 580.26 394.79 580.481 396.223 581.021C396.474 580.643 396.719 580.275 396.97 579.897C396.066 578.748 395.153 577.6 394.255 576.446C390.387 571.4 385.832 566.713 382.833 561.191C379.172 554.462 376.796 547.04 377.473 539.059C378.372 528.594 384.33 521.369 392.326 515.283C404.592 505.952 414.144 495.045 412.107 476.948C416.107 481.901 421.03 484.316 422.037 490.407C423.853 501.392 421.683 511.258 416.299 520.888C412.171 528.246 407.979 535.81 405.505 543.805C401.637 556.312 402.997 568.558 411.277 579.499C415.749 585.414 420.515 591.294 423.897 597.832C430.808 611.237 428.211 625.943 417.079 635.234C412.873 638.739 406.938 640.304 401.628 642.351C397.117 644.099 396.66 644.953 399.227 649.012C404.195 656.851 411.469 662.274 418.979 667.207C430.975 675.075 440.237 684.691 441.852 699.632C442.966 709.994 441.096 719.742 431.652 725.843C427.981 728.219 423.121 728.714 418.861 730.231C417.933 730.555 417.256 731.581 416.461 732.293C417.271 732.955 418.11 734.236 418.89 734.197C428.634 733.716 436.566 729.873 441.646 721.224C451.143 705.051 444.988 681.996 429.669 670.329C424.054 666.059 418.331 661.941 412.868 657.484C409.26 654.529 406.035 651.108 402.138 647.422C405.819 645.88 408.278 644.668 410.855 643.799C425.713 638.783 434.229 622.58 430.793 605.627C428.845 596.001 423.892 587.863 417.413 580.702C409.196 571.631 406.256 561.328 408.283 549.229C409.834 540.006 414.689 532.482 419.362 524.795C425.448 514.787 429.007 504.259 426.508 492.38C426.287 491.305 426.125 490.211 425.752 488.105C429.527 489.661 432.442 490.991 435.456 492.081C441.685 494.363 447.816 497.23 454.255 498.481C459.365 499.478 464.877 498.128 470.193 498.339C476.559 498.599 481.492 496.12 486.057 491.963C487.765 490.407 490.317 489.033 492.536 488.959C498.372 488.772 504.238 489.219 510.069 489.636C519.895 490.338 529.403 492.552 538.454 496.498C555.565 503.954 568.307 516.382 578.33 531.839C589.619 549.239 597.625 567.729 596.255 589.051C595.303 603.825 589.982 617.083 579.012 627.032C563.256 641.325 544.31 647.515 523.218 643.441C505.101 639.941 491.436 629.751 484.56 611.983C482.16 605.789 480.486 599.314 478.311 593.037C477.865 591.746 476.643 590.735 475.779 589.591C475.312 590.99 474.341 592.443 474.498 593.768C474.841 596.59 475.793 599.344 476.461 602.127C478.64 611.217 482.326 619.63 482.925 629.472C483.932 645.748 487.147 662.039 490.985 677.952C496.958 702.798 504.066 727.365 511.065 751.951C512.538 757.1 513.092 762.111 512.41 767H197.193C196.295 759.137 195.485 751.259 195.063 743.366C193.811 720.085 195.352 696.884 198.263 673.76C199.097 667.173 199.451 660.488 199.48 653.852C199.51 647.623 196.241 643.662 190.012 642.764C183.346 641.806 176.543 641.733 169.789 641.316C152.6 640.241 135.391 639.5 118.241 637.998C107.433 637.055 96.7083 634.851 87.672 628.171C76.4465 619.861 70.1097 609.161 73.2216 594.715C74.2917 589.777 76.4367 585.075 78.0957 580.265C82.2875 568.127 76.6821 557.323 64.4209 553.927C61.309 553.068 59.4438 549.946 59.7972 546.206C60.1997 542.038 61.4464 540.954 65.7658 540.693C67.5721 540.59 69.506 540.487 71.1356 539.795C76.363 537.586 81.7819 537.395 87.294 537.631C88.3395 537.67 89.4341 537.827 90.4256 537.591C91.26 537.38 91.9766 536.674 92.7374 536.193C91.9766 535.319 91.368 534.087 90.401 533.67C89.4193 533.238 88.0794 533.513 86.9161 533.64C82.1255 534.185 78.0613 532.673 73.9825 530.155C67.9991 526.459 61.8342 522.945 55.4042 520.122C48.822 517.226 48.6404 517.639 50.059 510.61C52.1107 500.445 49.4945 495.654 39.7268 491.732C37.3216 490.765 34.8822 489.867 32.109 488.817C32.8698 488.36 33.0759 488.188 33.3115 488.1C41.4742 485.189 49.2147 486.843 56.8767 490.122C61.8391 492.243 66.9733 493.661 71.5086 489.337C76.9422 484.154 77.8994 473.885 73.8303 467.529C72.5591 465.531 70.9786 464.535 68.1857 465.963C68.9023 467.362 69.5208 468.732 70.2668 470.027C73.1775 475.098 72.721 481.822 68.8286 485.695C64.9903 489.514 60.7151 488.37 56.5577 486.137C49.0969 482.127 41.1944 482.357 33.3458 484.188C28.4375 485.337 23.8629 487.899 18.9643 489.072C9.05915 491.433 2.0745 484.301 4.4747 474.386H4.49435Z" stroke="#ABD916" stroke-width="8" stroke-miterlimit="10"/>
<path d="M531.783 466.444C532.426 460.225 532.191 453.879 531.901 447.606C531.14 430.873 535.524 415.073 539.794 399.15C543.843 384.072 547.696 368.87 550.455 353.517C552.855 340.245 551.721 326.732 550.249 313.293C548.482 297.105 544.751 281.373 539.421 266.103C527.862 232.996 511.448 202.888 485.1 178.793C465.854 161.186 445.008 146.142 421.605 134.671C419.764 133.768 417.698 133.351 415.729 132.708L415.705 132.669C410.188 130.121 404.774 127.274 399.114 125.09C376.84 116.481 353.638 111.489 330.029 108.652C311.338 106.404 292.583 106.252 273.837 109.079C256.329 111.715 238.738 113.86 221.175 116.157C219.256 116.407 217.268 116.186 214.647 116.186C215.074 116.682 215.678 117.399 216.385 118.287C219.197 121.821 224.994 129.817 224.007 130.853C222.78 132.143 211.393 122.302 194.179 109.678C175.38 95.89 169.043 90.8884 156.841 85.4793C133.536 75.157 126.537 80.0654 117.083 71.7358C95.3634 52.598 106.599 4.00982 105.303 4C103.202 3.99018 104.773 49.5695 86.651 56.5198C82.1156 58.2623 76.2845 57.5997 73.8892 61.919C72.0632 65.2077 74.0266 68.1527 75.6464 77.3069C76.5937 82.6668 76.8783 86.5837 77.0992 94.4322C77.2956 101.412 77.1876 108.426 76.7213 115.401C76.2402 122.665 75.1899 129.89 74.3211 137.636C75.6955 137.778 77.4625 137.975 79.5093 138.225C154.622 147.413 206.499 182.258 206.264 182.744C206.013 183.264 139.971 156.744 123.695 150.049C118.06 147.732 106.648 145.107 92.9975 142.549C88.3836 141.685 83.3034 143.447 78.5914 142.8C72.5393 141.975 66.8996 142.79 61.2795 144.655C52.356 147.625 44.91 152.69 39.5549 160.568C36.1878 165.521 35.2994 170.9 36.9289 176.648C38.4849 182.111 37.8419 187.142 34.6956 191.982C26.5918 204.459 28.4669 216.475 36.9977 228.304C38.2935 224.205 39.5696 220.205 40.836 216.195C41.2189 216.17 41.6066 216.141 41.9895 216.116C42.5932 217.25 43.2461 218.364 43.8154 219.523C47.2415 226.542 49.6417 234.341 54.2801 240.437C63.1152 252.041 75.8721 255.712 90.1703 254.289C96.3647 253.665 102.633 252.183 108.739 252.654C117.206 253.317 122.978 259.266 128.112 265.563C133.889 272.656 139.519 279.803 147.186 285.123C158.068 292.677 169.524 295.377 182.365 291.107C186.925 289.59 191.612 288.196 196.344 287.489C209.106 285.595 219.688 290.022 228.086 299.662C230.649 302.612 232.867 305.856 235.169 309.027C240.406 316.247 248.049 318.078 255.833 313.626C259.102 311.761 262.16 309.469 265.174 307.187C279.453 296.393 295.287 296.81 308.309 308.855C317.964 317.789 328.934 319.153 341.117 316.056C342.972 315.585 345.112 316.223 347.115 316.346C345.534 317.558 344.126 319.443 342.359 319.875C329.047 323.085 316.437 322.407 305.703 312.453C292.799 300.487 278.687 301.645 265.827 312.169C260.393 316.611 254.528 320.096 247.057 319.889C240.696 319.723 235.807 317.195 231.979 312.159C228.592 307.707 225.446 302.911 221.381 299.147C211.776 290.233 200.202 289.413 188.392 293.507C179.94 296.447 171.62 298.302 162.721 296.148C162.476 296.447 162.226 296.751 161.98 297.051C165.151 300.28 168.106 303.765 171.527 306.696C180.657 314.495 191.278 319.237 203.078 321.495C211.324 323.075 217.499 327.699 222.049 334.821C227.129 342.768 233.81 349.296 243.499 350.523C248.986 351.215 254.876 350.194 260.388 349.006C268.865 347.175 277.342 345.006 285.873 347.416C290.541 348.736 294.806 351.544 299.214 353.752C305.472 356.904 311.431 360.914 318.013 363.103C324.993 365.425 331.653 363.505 337.607 358.415C349.353 348.373 363.003 345.614 377.935 349.6C379.554 350.032 381.223 350.714 382.509 351.74C383.162 352.251 383.015 353.777 383.226 354.847C382.313 354.98 381.346 355.367 380.497 355.2C375.412 354.204 370.376 352.29 365.291 352.172C356.029 351.961 347.709 354.926 340.857 361.699C334 368.483 320.526 370.191 311.028 365.636C306.562 363.496 302.095 361.14 298.163 358.165C287.841 350.366 276.778 348.599 264.512 352.481C260.438 353.772 256.153 354.611 251.902 355.058C242.758 356.015 234.629 353.384 227.782 347.062C227.419 347.244 227.051 347.426 226.683 347.597C228.489 352.093 229.299 357.463 232.312 360.924C239.528 369.234 248.221 376.041 259.21 378.977C262.082 379.738 265.155 380.204 268.109 380.091C275.585 379.826 280.783 383.816 286.02 388.411C291.783 393.452 297.609 398.64 304.137 402.547C318.416 411.078 330.726 407.234 342.26 397.364C347.881 392.553 353.034 387.026 357.678 381.239C367.465 369.037 382.068 368.811 394.152 374.932C406.472 381.176 412.19 391.704 412.642 405.399C413.02 416.619 411.783 427.619 408.249 438.216C405.647 446.03 407.827 453.133 410.114 460.382C413.692 471.75 420.711 479.962 431.775 484.718C437.523 487.197 443.04 490.206 448.758 492.753C455.541 495.787 462.688 495.625 469.879 494.618C470.909 494.476 471.96 494.226 472.986 494.314C477.31 494.677 480.967 493.411 483.936 490.196C490.204 483.393 498.333 484.478 506.289 485.052C510.707 485.366 515.124 485.798 519.522 486.387C523.739 486.961 526.654 484.797 527.945 481.42C529.776 476.624 531.248 471.52 531.783 466.444Z" stroke="#ABD916" stroke-width="8" stroke-miterlimit="10"/>
</svg>
