<svg width="210" height="293" viewBox="0 0 210 293" fill="none" xmlns="http://www.w3.org/2000/svg">
<g opacity="0.77" filter="url(#filter0_d_336_814)">
<path d="M60.0494 222.271C60.1349 220.286 60.4355 211.866 57.4792 201.754C55.7511 195.84 54.7536 192.603 51.6963 190.533C46.4964 187.015 42.0504 191.419 33.0599 189.251C31.0209 188.759 22.0407 186.593 18.9213 179.952C14.9909 171.585 22.8802 161.457 18.2787 157.512C16.4599 155.951 14.1074 156.579 12.8171 154.307C11.7393 152.412 12.97 151.267 12.8171 147.576C12.5969 142.253 9.89714 141.095 10.8895 137.957C11.5735 135.791 12.913 136.176 14.7447 132.828C15.8381 130.83 17.2554 127.232 16.0299 126.097C15.1049 125.242 13.6462 126.687 11.8533 126.097C8.96962 125.151 7.25184 119.617 8.3193 115.196C8.97739 112.464 10.4672 111.13 15.7086 106.221C26.137 96.4554 27.0257 95.3801 27.5982 93.7179C28.6709 90.5979 28.5413 85.6322 22.7792 77.6886C23.7792 73.1571 25.7898 66.9946 30.0933 60.7855C31.539 58.6994 33.0418 56.8977 34.4978 55.357C33.8708 47.3747 34.5082 37.1123 40.1978 27.9564C58.2021 -1.02109 117.705 -4.26781 152.592 21.2665C177.41 39.4311 185.452 69.0057 188.258 79.2912C192.352 94.2996 194.494 102.16 191.792 111.991C189.963 118.642 185.501 127.7 188.579 130.264C190.064 131.5 191.87 130.037 195.005 131.546C199.192 133.563 200.547 138.378 200.788 139.239C201.052 140.18 202.472 145.229 199.824 148.858C197.855 151.557 195.207 151.321 195.005 153.025C194.728 155.369 199.707 156.013 201.43 160.397C202.568 163.285 201.876 166.746 200.466 169.052C198.054 172.999 194.412 172.151 193.398 175.142C192.339 178.267 196.083 179.89 196.611 186.043C196.73 187.418 197.008 190.646 195.326 193.735C193.16 197.716 190.1 197.137 188.901 200.146C187.426 203.843 191.629 205.761 191.792 212.009C191.911 216.535 189.875 221.868 186.009 224.512C183.208 226.428 181.118 225.631 180.548 227.076C179.244 230.367 189.828 234.668 189.696 241.214C189.616 245.171 185.711 245.435 183.737 250.002C179.198 260.51 193.958 272.773 189.955 278.696C188.095 281.449 183.33 281.125 178.037 280.764C164.051 279.81 147.542 272.163 147.982 264.995C148.309 259.683 157.641 259.528 159.123 252.07C160.463 245.326 153.693 241.136 156.014 235.527C157.944 230.863 163.569 231.479 164.305 227.772C165.44 222.049 152.804 216.705 154.201 212.009C155.149 208.821 161.572 209.426 162.232 206.239C162.942 202.827 156.237 201.149 155.164 195.979C153.594 188.416 165.865 181.974 164.16 178.668C162.862 176.147 153.636 175.835 148.736 180.591C141 188.1 151.853 200.676 148.094 216.496C141.832 242.858 100.988 253.017 90.5781 255.607C83.093 257.468 60.9796 262.969 55.5542 254.645C52.0073 249.204 59.1348 243.284 60.052 222.266L60.0494 222.271Z" stroke="#1CE6D5" stroke-width="8" stroke-miterlimit="10" stroke-linejoin="bevel" shape-rendering="crispEdges"/>
</g>
<defs>
<filter id="filter0_d_336_814" x="0" y="0" width="210.002" height="292.999" filterUnits="userSpaceOnUse" color-interpolation-filters="sRGB">
<feFlood flood-opacity="0" result="BackgroundImageFix"/>
<feColorMatrix in="SourceAlpha" type="matrix" values="0 0 0 0 0 0 0 0 0 0 0 0 0 0 0 0 0 0 127 0" result="hardAlpha"/>
<feOffset dy="4"/>
<feGaussianBlur stdDeviation="2"/>
<feComposite in2="hardAlpha" operator="out"/>
<feColorMatrix type="matrix" values="0 0 0 0 0 0 0 0 0 0 0 0 0 0 0 0 0 0 0.25 0"/>
<feBlend mode="normal" in2="BackgroundImageFix" result="effect1_dropShadow_336_814"/>
<feBlend mode="normal" in="SourceGraphic" in2="effect1_dropShadow_336_814" result="shape"/>
</filter>
</defs>
</svg>
