<svg width="605" height="855" viewBox="0 0 605 855" fill="none" xmlns="http://www.w3.org/2000/svg">
<g opacity="0.77" filter="url(#filter0_d_244_504)">
<path d="M166.026 665.117C166.286 659.103 167.198 633.603 158.223 602.973C152.976 585.059 149.948 575.257 140.666 568.985C124.878 558.329 111.38 571.671 84.0839 565.102C77.8932 563.614 50.6289 557.053 41.1579 536.939C29.2249 511.595 53.1775 480.918 39.2071 468.971C33.685 464.241 26.5425 466.144 22.6252 459.262C19.3528 453.523 23.0893 450.054 22.6252 438.874C21.9565 422.753 13.7599 419.245 16.7727 409.74C18.8493 403.179 22.9162 404.345 28.4776 394.206C31.7971 388.154 36.1 377.255 32.3793 373.818C29.5711 371.226 25.1424 375.603 19.699 373.818C10.9439 370.952 5.72854 354.189 8.96942 340.801C10.9674 332.525 15.4905 328.485 31.4039 313.616C63.0654 284.036 65.7635 280.779 67.5019 275.745C70.7585 266.295 70.3652 251.254 52.8707 227.194C55.9071 213.469 62.0113 194.803 75.0771 175.996C79.4664 169.678 84.0288 164.221 88.4496 159.554C86.546 135.377 88.4811 104.293 105.755 76.561C160.418 -11.2083 341.073 -21.0422 446.992 56.2981C522.343 111.316 546.759 200.894 555.278 232.048C567.707 277.507 574.212 301.316 566.008 331.092C560.454 351.237 546.909 378.672 556.254 386.439C560.761 390.182 566.244 385.75 575.762 390.323C588.474 396.43 592.588 411.016 593.319 413.623C594.122 416.473 598.432 431.764 590.393 442.757C584.415 450.931 576.376 450.219 575.762 455.378C574.92 462.48 590.039 464.429 595.27 477.708C598.724 486.454 596.623 496.938 592.344 503.922C585.02 515.877 573.961 513.309 570.885 522.368C567.668 531.834 579.034 536.751 580.639 555.385C581.001 559.551 581.843 569.33 576.737 578.686C570.161 590.744 560.871 588.99 557.229 598.103C552.753 609.3 565.512 615.109 566.008 634.033C566.37 647.743 560.187 663.895 548.451 671.905C539.947 677.706 533.599 675.295 531.868 679.672C527.912 689.639 560.045 702.667 559.644 722.492C559.4 734.479 547.546 735.277 541.552 749.112C527.77 780.939 572.584 818.083 560.431 836.02C554.783 844.359 540.317 843.38 524.246 842.284C481.784 839.395 431.661 816.235 432.998 794.523C433.989 778.434 462.323 777.964 466.823 755.376C470.89 734.948 450.335 722.257 457.383 705.267C463.244 691.142 480.321 693.005 482.555 681.778C486.001 664.443 447.637 648.26 451.877 634.033C454.756 624.379 474.256 626.212 476.262 616.558C478.418 606.223 458.06 601.141 454.803 585.482C450.036 562.573 487.291 543.062 482.115 533.048C478.174 525.414 450.162 524.466 435.287 538.873C411.798 561.618 444.75 599.708 433.336 647.625C414.324 727.471 290.321 758.241 258.714 766.087C235.989 771.724 168.85 788.385 152.379 763.174C141.61 746.693 163.25 728.763 166.034 665.101L166.026 665.117Z" stroke="#1CE6D5" stroke-width="8" stroke-miterlimit="10" stroke-linejoin="bevel" shape-rendering="crispEdges"/>
</g>
<defs>
<filter id="filter0_d_244_504" x="0" y="0.000244141" width="605.002" height="854.999" filterUnits="userSpaceOnUse" color-interpolation-filters="sRGB">
<feFlood flood-opacity="0" result="BackgroundImageFix"/>
<feColorMatrix in="SourceAlpha" type="matrix" values="0 0 0 0 0 0 0 0 0 0 0 0 0 0 0 0 0 0 127 0" result="hardAlpha"/>
<feOffset dy="4"/>
<feGaussianBlur stdDeviation="2"/>
<feComposite in2="hardAlpha" operator="out"/>
<feColorMatrix type="matrix" values="0 0 0 0 0 0 0 0 0 0 0 0 0 0 0 0 0 0 0.25 0"/>
<feBlend mode="normal" in2="BackgroundImageFix" result="effect1_dropShadow_244_504"/>
<feBlend mode="normal" in="SourceGraphic" in2="effect1_dropShadow_244_504" result="shape"/>
</filter>
</defs>
</svg>
