<svg width="222" height="363" viewBox="0 0 222 363" fill="none" xmlns="http://www.w3.org/2000/svg">
<g filter="url(#filter0_d_336_815)">
<path d="M9.48835 112.645C8.81815 111.351 7.2591 108.343 8.41357 105.825C9.95014 102.477 14.7151 103.409 16.2946 100.081C17.9313 96.6314 14.1042 92.8948 15.937 90.749C17.4532 88.9718 20.7511 90.7469 22.0261 88.9554C23.3767 87.0594 20.2852 84.2359 21.6685 81.7769C22.5349 80.2372 24.0347 80.8289 27.0424 78.5459C28.724 77.2683 30.3055 76.0664 30.2667 74.5984C30.2115 72.5345 27.022 72.3523 25.61 69.2135C24.8561 67.5366 24.6865 65.1902 25.61 63.4703C26.7727 61.302 29.0366 61.3102 35.9982 59.5227C43.3929 57.6226 42.3508 57.2234 49.2511 55.5752C54.1121 54.4142 54.9417 54.5371 56.4149 53.4212C59.7904 50.8618 59.1079 47.4323 61.0715 43.0118C64.5615 35.1576 73.2537 31.2858 77.5488 29.3734C84.5655 26.2469 89.7166 26.4599 91.5188 22.1949C92.4996 19.871 91.4902 18.5811 92.9512 16.81C95.444 13.79 100.009 15.5815 102.265 12.5021C103.435 10.903 102.771 9.64792 103.339 8.1942C105.75 2.0333 125.589 4.42682 126.98 4.60495C138.836 6.116 147.403 6.73024 155.766 10.8559C182.176 23.8882 197.485 64.5944 188.232 92.9378C184.221 105.229 177.38 109.709 178.202 122.332C178.631 128.943 180.094 132.317 184.649 153.199C187.738 167.364 185.774 173.482 186.438 185.503C187.648 207.394 195.562 212.472 205.065 240.418C205.065 240.418 222.511 291.722 208.647 336.251C207.744 339.148 201.949 351.732 198.259 350.967C193.136 349.904 200.131 324.677 190.985 293.733C188.672 285.908 187.744 285.897 168.171 248.314C153.646 220.423 146.731 206.248 144.888 200.576C134.786 169.465 146.014 136.711 143.456 136.328C142.281 136.152 141.941 143.355 135.934 147.096C131 150.169 127.542 147.606 123.756 151.043C121.257 153.314 119.659 155.882 118.025 161.453C114.727 172.69 114.682 180.063 113.913 184.325C111.592 197.216 99.1935 200.951 88.6521 210.986C66.7581 231.829 57.2731 275.822 67.8778 302.152C69.5554 306.319 76.2921 321.319 74.6841 339.122C74.5349 340.766 74.0425 346.222 72.8941 346.3C72.3097 346.339 70.4851 345.06 65.7303 313.278C60.5423 278.596 57.9473 261.254 60.3564 251.542C66.5987 226.383 83.9975 209.19 83.9975 209.19C93.2965 200.001 101.627 196.393 103.699 185.859C105.926 174.532 107.544 163.881 106.206 163.605C104.835 163.322 103.795 174.8 95.8179 188.011C89.4939 198.486 88.7685 197.229 73.6093 212.417C73.6093 212.417 60.007 226.188 54.625 245.797C51.513 257.134 53.7626 262.005 59.2816 301.071C63.264 329.263 65.2562 343.358 63.5807 343.784C61.7785 344.241 55.6875 331.98 54.625 317.941C54.0794 310.715 55.1317 306.548 55.6997 301.43C58.2171 278.717 47.1546 273.508 47.8187 254.769C48.5379 234.456 62.3282 218.199 69.6677 209.544C80.5953 196.662 92.5425 189.258 91.1592 186.932C89.2671 183.75 67.4283 198.478 58.2048 190.879C53.5972 187.083 56.4721 181.285 53.9057 166.832C52.0422 156.334 49.5085 142.063 39.578 132.733C29.0693 122.862 14.6947 122.671 9.4904 112.633L9.48835 112.645Z" stroke="#F9C64F" stroke-width="8" stroke-miterlimit="10" stroke-linejoin="bevel" shape-rendering="crispEdges"/>
</g>
<defs>
<filter id="filter0_d_336_815" x="0" y="0" width="222" height="363.001" filterUnits="userSpaceOnUse" color-interpolation-filters="sRGB">
<feFlood flood-opacity="0" result="BackgroundImageFix"/>
<feColorMatrix in="SourceAlpha" type="matrix" values="0 0 0 0 0 0 0 0 0 0 0 0 0 0 0 0 0 0 127 0" result="hardAlpha"/>
<feOffset dy="4"/>
<feGaussianBlur stdDeviation="2"/>
<feComposite in2="hardAlpha" operator="out"/>
<feColorMatrix type="matrix" values="0 0 0 0 0 0 0 0 0 0 0 0 0 0 0 0 0 0 0.25 0"/>
<feBlend mode="normal" in2="BackgroundImageFix" result="effect1_dropShadow_336_815"/>
<feBlend mode="normal" in="SourceGraphic" in2="effect1_dropShadow_336_815" result="shape"/>
</filter>
</defs>
</svg>
