<svg width="201" height="300" viewBox="0 0 201 300" fill="none" xmlns="http://www.w3.org/2000/svg">
<path d="M4.25477 143.031C3.1527 140.654 5.69768 137.287 10.5036 131.089C17.0251 122.667 19.2008 122.678 21.297 117.441C23.5636 111.777 23.3478 105.977 21.8651 103.793C21.7174 103.577 21.2118 102.883 20.7914 101.803C20.5585 101.211 20.0586 99.7443 20.1609 97.5379C20.5131 90.1738 27.7106 72.4828 30.9543 70.2423C31.0509 70.1741 31.4939 69.9921 31.5224 69.6737C31.5962 68.8548 28.8808 68.3089 27.5458 67.399C23.8874 64.8912 25.6825 56.1908 25.8416 55.4572C29.0285 40.7176 57.205 32.5858 58.7899 32.1422C77.4966 26.9276 94.3344 30.095 104.804 33.2795C105.298 29.6685 106.593 23.9933 110.485 18.4944C119.909 5.1878 137.928 2.28196 150.818 4.84661C155.8 5.84176 168.604 8.38935 174.109 19.6317C177.523 26.5978 176.495 33.5639 175.813 36.6915C178.483 37.5217 185.726 40.1717 191.151 47.496C191.947 48.5708 199.315 58.8635 196.264 71.9483C193.679 83.0371 184.618 91.8286 172.973 94.6946C173.899 98.8629 174.848 105.232 174.109 112.892C173.666 117.515 171.82 134.017 158.203 147.58C147.688 158.055 135.656 161.285 130.367 162.365C130.191 179.328 133.225 199.311 146.842 213.544C158.856 226.1 175.194 230.092 174.109 235.153C173.138 239.691 159.89 237.03 143.433 243.114C128.311 248.704 128.328 255.085 105.94 272.116C75.4913 295.283 58.9888 296.017 53.6773 296C48.61 295.983 37.436 296.324 34.9308 290.882C31.1645 282.704 48.2749 264.581 60.4942 251.644C68.5154 243.149 73.5372 239.122 74.696 231.173C75.5936 225.014 73.7076 219.697 70.7195 211.27C66.8907 200.482 64.982 195.086 60.4942 193.073C53.5125 189.934 48.6157 198.35 36.067 196.484C32.8346 196.007 27.7958 195.256 24.7055 191.367C21.5583 187.409 24.0522 184.753 20.1609 177.15C18.5134 173.931 16.8717 172.078 17.3205 169.189C17.6556 167.011 18.9111 165.97 18.4566 164.071C17.9454 161.944 16.0253 161.938 15.0482 160.09C12.9577 156.138 18.735 151.691 17.3205 148.149C15.6844 144.054 6.03852 146.886 4.25477 143.031Z" stroke="#FF0088" stroke-width="8" stroke-miterlimit="10"/>
</svg>
