<svg width="594" height="894" viewBox="0 0 594 894" fill="none" xmlns="http://www.w3.org/2000/svg">
<path d="M4.77238 425.427C1.43125 418.221 9.14684 408.017 23.7169 389.229C43.4881 363.701 50.0843 363.735 56.4393 347.86C63.311 330.692 62.6566 313.11 58.1616 306.491C57.7138 305.836 56.181 303.733 54.9065 300.458C54.2004 298.665 52.6849 294.218 52.9949 287.53C54.0627 265.208 75.8833 211.584 85.7173 204.792C86.0101 204.585 87.3534 204.034 87.4395 203.069C87.6634 200.586 79.4311 198.932 75.3839 196.174C64.2927 188.572 69.735 162.2 70.2172 159.976C79.8789 115.298 165.302 90.6485 170.107 89.3041C226.82 73.4977 277.867 83.0987 309.607 92.7515C311.106 81.8059 315.032 64.6034 326.83 47.9351C355.402 7.60044 410.031 -1.20769 449.108 6.56622C464.212 9.5827 503.031 17.3049 519.72 51.3825C530.07 72.4979 526.953 93.6133 524.886 103.094C532.981 105.61 554.939 113.643 571.387 135.844C573.798 139.102 596.135 170.301 586.887 209.963C579.051 243.576 551.581 270.224 516.275 278.912C519.082 291.546 521.959 310.852 519.72 334.07C518.376 348.084 512.779 398.106 471.497 439.216C439.619 470.967 403.142 480.757 387.108 484.032C386.574 535.451 395.771 596.022 437.053 639.166C473.478 677.225 523.009 689.326 519.72 704.667C516.775 718.422 476.612 710.355 426.719 728.799C380.873 745.743 380.925 765.083 313.052 816.708C220.74 886.931 170.709 889.155 154.607 889.103C139.244 889.051 105.368 890.086 97.7729 873.59C86.3545 848.803 138.228 793.868 175.273 754.654C199.591 728.902 214.816 716.698 218.329 692.601C221.05 673.933 215.332 657.816 206.273 632.271C194.666 599.572 188.879 583.214 175.273 577.113C154.107 567.598 139.261 593.109 101.217 587.455C91.4179 586.007 76.1417 583.732 66.7727 571.941C57.2316 559.944 64.7922 551.895 52.9949 528.849C48.0004 519.093 43.0231 513.473 44.3837 504.717C45.3998 498.115 49.206 494.961 47.8282 489.204C46.2782 482.757 40.457 482.74 37.4948 477.138C31.157 465.158 48.6721 451.679 44.3837 440.94C39.4237 428.529 10.1802 437.113 4.77238 425.427Z" stroke="#FF0088" stroke-width="8" stroke-miterlimit="10"/>
</svg>
