<svg width="581" height="642" viewBox="0 0 581 642" fill="none" xmlns="http://www.w3.org/2000/svg">
<g filter="url(#filter0_d_244_506)">
<path d="M61.4765 171.84C60.6076 183.739 53.0049 198.079 52.6512 205.707C52.3595 211.964 53.0484 217.849 53.0484 217.849C53.5697 222.288 54.271 224.685 55.6674 230.856C57.7341 240.003 58.7644 244.573 58.9816 247.338C59.7015 256.51 56.6604 263.689 54.4634 268.863C48.5923 282.705 39.0035 291.111 33.331 295.98C18.5786 308.639 9.84017 308.533 8.23274 316.733C6.315 326.521 16.8595 336.372 17.5174 336.976C26.9261 345.556 36.9617 343.103 38.7243 349.006C40.5737 355.189 29.9486 359.267 30.6561 368.246C31.4008 377.735 43.9996 382.511 42.1625 387.256C41.002 390.244 35.8632 388.75 32.3007 392.953C28.0556 397.965 30.1968 406.191 30.414 406.988C33.7406 419.111 47.1586 419.59 47.922 427.959C48.5736 435.095 39.0408 437.411 37.3092 445.91C34.6219 459.104 53.5883 473.295 55.3385 474.577C90.8633 500.58 133.991 465.368 160.38 488.021C168.957 495.387 171.688 510.935 177.143 542.036C185.578 590.124 178.229 612.248 193.273 624.321C201.292 630.759 211.427 630.94 230.672 628.704C289.614 621.849 355.344 614.203 365.349 579.103C370.767 560.094 351.987 554.614 349.163 520C345.725 477.878 368.992 438.594 376.806 440.151C381.243 441.035 378.004 454.565 384.117 472.753C393.749 501.427 422.093 528.213 450.748 532.784C497.922 540.305 539.367 486.564 555.696 453.033C590.327 381.926 569.524 283.577 523.851 263.346C496.444 251.204 468.33 270.856 453.919 253.869C441.314 239.013 458.667 219.735 455.16 184.929C455.16 184.929 454.943 183.241 454.608 180.937C452.15 164.306 443.294 104.3 403.791 61.8598C375.354 31.3121 341.672 21.2873 316.909 13.9275C243.805 -7.81581 181.934 11.9038 162.49 18.9586C156.737 21.0445 85.0977 47.8624 60.6759 96.9093C54.9785 108.354 47.3944 123.584 51.0313 141.037C54.1221 155.869 62.4509 158.565 61.4765 171.84Z" stroke="#9478D2" stroke-width="8" stroke-miterlimit="10" stroke-linejoin="bevel" shape-rendering="crispEdges"/>
</g>
<defs>
<filter id="filter0_d_244_506" x="-0.000976562" y="-0.000244141" width="581.001" height="642.005" filterUnits="userSpaceOnUse" color-interpolation-filters="sRGB">
<feFlood flood-opacity="0" result="BackgroundImageFix"/>
<feColorMatrix in="SourceAlpha" type="matrix" values="0 0 0 0 0 0 0 0 0 0 0 0 0 0 0 0 0 0 127 0" result="hardAlpha"/>
<feOffset dy="4"/>
<feGaussianBlur stdDeviation="2"/>
<feComposite in2="hardAlpha" operator="out"/>
<feColorMatrix type="matrix" values="0 0 0 0 0 0 0 0 0 0 0 0 0 0 0 0 0 0 0.25 0"/>
<feBlend mode="normal" in2="BackgroundImageFix" result="effect1_dropShadow_244_506"/>
<feBlend mode="normal" in="SourceGraphic" in2="effect1_dropShadow_244_506" result="shape"/>
</filter>
</defs>
</svg>
