<svg width="693" height="766" viewBox="0 0 693 766" fill="none" xmlns="http://www.w3.org/2000/svg">
<g filter="url(#filter0_d_244_506)">
<path d="M72.0772 205.087C71.0361 219.343 61.9263 236.523 61.5024 245.661C61.1529 253.159 61.9783 260.208 61.9783 260.208C62.603 265.527 63.4433 268.399 65.1165 275.792C67.5929 286.751 68.8274 292.227 69.0877 295.539C69.9503 306.527 66.3064 315.129 63.6739 321.328C56.6389 337.911 45.1494 347.982 38.3523 353.816C20.6756 368.982 10.2049 368.855 8.27888 378.68C5.98098 390.407 18.6157 402.209 19.404 402.933C30.6778 413.213 42.7027 410.273 44.8147 417.345C47.0308 424.753 34.2994 429.639 35.1472 440.397C36.0396 451.766 51.1358 457.488 48.9346 463.172C47.5439 466.753 41.3865 464.962 37.1179 469.998C32.0313 476.003 34.5969 485.858 34.8572 486.813C38.8432 501.337 54.921 501.912 55.8357 511.938C56.6166 520.487 45.194 523.262 43.1192 533.445C39.8992 549.253 62.6253 566.254 64.7224 567.791C107.289 598.944 158.966 556.757 190.586 583.897C200.864 592.722 204.136 611.35 210.672 648.612C220.779 706.226 211.974 732.731 230 747.196C239.608 754.91 251.752 755.126 274.813 752.448C345.438 744.234 424.199 735.073 436.186 693.022C442.678 670.246 420.175 663.681 416.792 622.211C412.672 571.745 440.552 524.68 449.914 526.545C455.231 527.604 451.349 543.814 458.674 565.605C470.216 599.958 504.179 632.051 538.513 637.527C595.039 646.538 644.7 582.151 664.266 541.979C705.762 456.786 680.834 338.956 626.109 314.718C593.269 300.171 559.581 323.715 542.314 303.364C527.21 285.565 548.003 262.469 543.801 220.767C543.801 220.767 543.541 218.746 543.139 215.986C540.194 196.06 529.582 124.168 482.248 73.3209C448.174 36.7222 407.816 24.7116 378.144 15.8939C290.549 -10.1563 216.413 13.4694 193.115 21.9216C186.221 24.4207 100.381 56.5508 71.1179 115.313C64.2911 129.025 55.2036 147.272 59.5614 168.182C63.2648 185.952 73.2447 189.182 72.0772 205.087Z" stroke="#F59FF2" stroke-width="8" stroke-miterlimit="10" stroke-linejoin="bevel" shape-rendering="crispEdges"/>
</g>
<defs>
<filter id="filter0_d_244_506" x="-0.000976562" y="-0.000244141" width="693.001" height="766.005" filterUnits="userSpaceOnUse" color-interpolation-filters="sRGB">
<feFlood flood-opacity="0" result="BackgroundImageFix"/>
<feColorMatrix in="SourceAlpha" type="matrix" values="0 0 0 0 0 0 0 0 0 0 0 0 0 0 0 0 0 0 127 0" result="hardAlpha"/>
<feOffset dy="4"/>
<feGaussianBlur stdDeviation="2"/>
<feComposite in2="hardAlpha" operator="out"/>
<feColorMatrix type="matrix" values="0 0 0 0 0 0 0 0 0 0 0 0 0 0 0 0 0 0 0.25 0"/>
<feBlend mode="normal" in2="BackgroundImageFix" result="effect1_dropShadow_244_506"/>
<feBlend mode="normal" in="SourceGraphic" in2="effect1_dropShadow_244_506" result="shape"/>
</filter>
</defs>
</svg>
