<svg width="239" height="263" viewBox="0 0 239 263" fill="none" xmlns="http://www.w3.org/2000/svg">
<g filter="url(#filter0_d_336_816)">
<path d="M29.1067 70.2245C28.7637 74.9195 25.763 80.5775 25.6234 83.5871C25.5083 86.0562 25.7802 88.3779 25.7802 88.3779C25.9859 90.1296 26.2627 91.0755 26.8139 93.5102C27.6296 97.1193 28.0362 98.9226 28.1219 100.013C28.4061 103.632 27.2058 106.465 26.3387 108.507C24.0214 113.968 20.2368 117.285 17.9979 119.206C12.1753 124.201 8.7263 124.159 8.09186 127.395C7.33495 131.257 11.4968 135.144 11.7564 135.382C15.4699 138.767 19.4309 137.799 20.1266 140.128C20.8565 142.568 16.6629 144.177 16.9421 147.72C17.2361 151.464 22.2087 153.349 21.4836 155.221C21.0256 156.4 18.9973 155.81 17.5913 157.469C15.9158 159.446 16.7609 162.692 16.8466 163.006C18.1596 167.79 23.4555 167.979 23.7568 171.281C24.014 174.096 20.2515 175.01 19.5681 178.364C18.5074 183.57 25.9933 189.169 26.684 189.675C40.7053 199.935 57.7274 186.041 68.1429 194.979C71.5282 197.886 72.606 204.02 74.7592 216.292C78.0881 235.266 75.1878 243.995 81.1256 248.759C84.2904 251.3 88.2906 251.371 95.8866 250.489C119.15 247.784 145.093 244.767 149.042 230.918C151.181 223.417 143.768 221.255 142.654 207.598C141.297 190.977 150.48 175.477 153.564 176.091C155.315 176.44 154.037 181.779 156.45 188.955C160.251 200.269 171.439 210.838 182.748 212.641C201.367 215.609 217.725 194.404 224.17 181.174C237.839 153.118 229.628 114.312 211.602 106.33C200.784 101.539 189.688 109.293 184 102.591C179.025 96.7287 185.874 89.1224 184.49 75.3887C184.49 75.3887 184.404 74.7229 184.272 73.8139C183.302 67.2517 179.806 43.5754 164.215 26.8297C152.991 14.7765 139.697 10.821 129.923 7.91707C101.07 -0.662148 76.6502 7.1186 68.9757 9.90218C66.705 10.7252 38.4297 21.3067 28.7907 40.6591C26.542 45.1747 23.5486 51.1841 24.984 58.0706C26.2039 63.9227 29.4912 64.9866 29.1067 70.2245Z" stroke="#F59FF2" stroke-width="8" stroke-miterlimit="10" stroke-linejoin="bevel" shape-rendering="crispEdges"/>
</g>
<defs>
<filter id="filter0_d_336_816" x="-0.000976562" y="0" width="239" height="263.005" filterUnits="userSpaceOnUse" color-interpolation-filters="sRGB">
<feFlood flood-opacity="0" result="BackgroundImageFix"/>
<feColorMatrix in="SourceAlpha" type="matrix" values="0 0 0 0 0 0 0 0 0 0 0 0 0 0 0 0 0 0 127 0" result="hardAlpha"/>
<feOffset dy="4"/>
<feGaussianBlur stdDeviation="2"/>
<feComposite in2="hardAlpha" operator="out"/>
<feColorMatrix type="matrix" values="0 0 0 0 0 0 0 0 0 0 0 0 0 0 0 0 0 0 0.25 0"/>
<feBlend mode="normal" in2="BackgroundImageFix" result="effect1_dropShadow_336_816"/>
<feBlend mode="normal" in="SourceGraphic" in2="effect1_dropShadow_336_816" result="shape"/>
</filter>
</defs>
</svg>
