<svg width="182" height="225" viewBox="0 0 182 225" fill="none" xmlns="http://www.w3.org/2000/svg">
<path d="M34.8577 166.922C41.2431 167.105 45.8166 171.992 51.4315 177.99C57.313 184.273 61.2303 188.459 62.854 194.917C65.9314 207.153 57.2839 213.644 61.0623 218.355C66.6638 225.341 90.1987 216.703 100.481 212.93C107.07 210.512 110.956 209.084 115.935 205.985C126.504 199.403 127.423 194.355 136.541 191.445C142.091 189.674 146.48 190.037 147.291 187.539C147.95 185.51 145.58 183.646 143.036 180.377C137.692 173.517 133.499 162.944 136.317 156.506C138.171 152.267 142.624 150.831 146.171 149.127C160.024 142.473 166.658 128.561 172.376 116.575C186.421 87.1258 173.798 35.7431 138.556 18.9179C127.102 13.4492 115.599 12.7482 106.976 13.2755C104.011 11.2747 99.5696 8.69435 93.7621 6.76508C77.728 1.43953 63.5215 5.16134 57.7027 6.76508C55.9199 7.25771 16.9713 18.4362 11.1167 48.215C8.82773 59.8622 10.5456 76.7004 17.1639 80.7673C17.8112 81.1666 19.7015 82.1757 20.5235 84.2395C21.0409 85.5394 21.332 87.7552 17.1639 95.0903C14.6756 99.4697 12.9802 102.454 9.77289 106.158C6.80303 109.587 5.15909 110.609 4.39758 113.537C4.22513 114.203 3.13663 118.387 5.51744 120.698C7.55334 122.675 11.1638 122.354 12.6845 122.217C15.4976 121.965 16.8773 120.985 17.3879 121.566C18.1225 122.404 15.4886 124.704 14.7003 127.86C14.1023 130.251 14.4472 133.617 17.8358 138.276C17.2782 138.836 16.5861 139.7 16.2681 140.88C15.6365 143.231 16.9579 145.117 17.6119 146.74C19.8807 152.371 14.3755 155.47 16.2681 160.629C18.2121 165.931 25.8025 167.513 26.1228 167.573C30.0669 168.333 31.2181 166.818 34.8577 166.922Z" stroke="#DBF39D" stroke-width="8" stroke-miterlimit="10" stroke-linejoin="bevel"/>
</svg>
