<svg width="491" height="692" viewBox="0 0 491 692" fill="none" xmlns="http://www.w3.org/2000/svg">
<g opacity="0.77" filter="url(#filter0_d_244_504)">
<path d="M136.007 536.796C136.216 531.958 136.951 511.442 129.728 486.8C125.505 472.387 123.068 464.501 115.598 459.455C102.893 450.882 92.0302 461.616 70.0638 456.331C65.0818 455.134 43.1407 449.856 35.5189 433.673C25.9158 413.283 45.1917 388.603 33.949 378.991C29.5051 375.186 23.7571 376.717 20.6046 371.18C17.9712 366.562 20.9781 363.772 20.6046 354.777C20.0665 341.807 13.4703 338.985 15.8948 331.338C17.566 326.059 20.8388 326.998 25.3144 318.84C27.9858 313.971 31.4486 305.203 28.4543 302.438C26.1944 300.353 22.6304 303.874 18.2497 302.438C11.204 300.132 7.00699 286.646 9.61511 275.874C11.223 269.216 14.863 265.966 27.6693 254.004C53.1491 230.206 55.3203 227.585 56.7193 223.535C59.3401 215.932 59.0236 203.831 44.9449 184.474C47.3884 173.432 52.3007 158.415 62.8155 143.284C66.3478 138.201 70.0194 133.81 73.5771 130.056C72.0452 110.605 73.6024 85.5971 87.5039 63.2857C131.494 -7.32731 276.877 -15.239 362.115 46.9836C422.754 91.2474 442.404 163.315 449.259 188.38C459.261 224.952 464.496 244.108 457.894 268.063C453.425 284.271 442.524 306.343 450.044 312.592C453.672 315.603 458.084 312.037 465.744 315.716C475.973 320.629 479.284 332.365 479.873 334.462C480.519 336.755 483.988 349.057 477.518 357.901C472.707 364.477 466.237 363.904 465.744 368.055C465.066 373.769 477.233 375.337 481.443 386.02C484.222 393.057 482.532 401.491 479.088 407.11C473.194 416.729 464.294 414.662 461.819 421.95C459.23 429.566 468.377 433.522 469.668 448.514C469.96 451.865 470.637 459.733 466.529 467.26C461.236 476.961 453.76 475.55 450.829 482.882C447.227 491.89 457.495 496.563 457.894 511.788C458.185 522.818 453.21 535.813 443.765 542.257C436.921 546.925 431.813 544.985 430.42 548.506C427.236 556.525 453.096 567.006 452.773 582.956C452.576 592.6 443.037 593.242 438.213 604.373C427.122 629.979 463.186 659.861 453.406 674.293C448.861 681.001 437.219 680.214 424.286 679.332C390.115 677.008 349.778 658.375 350.854 640.907C351.651 627.963 374.453 627.585 378.074 609.412C381.347 592.978 364.806 582.767 370.478 569.098C375.194 557.734 388.937 559.233 390.735 550.2C393.508 536.254 362.635 523.234 366.047 511.788C368.364 504.022 384.057 505.496 385.671 497.729C387.405 489.414 371.022 485.326 368.402 472.728C364.565 454.296 394.546 438.599 390.381 430.542C387.209 424.401 364.667 423.639 352.696 435.229C333.793 453.528 360.311 484.173 351.126 522.724C335.825 586.962 236.033 611.717 210.598 618.029C192.31 622.564 138.28 635.969 125.024 615.686C116.358 602.426 133.773 588.001 136.014 536.783L136.007 536.796Z" stroke="#DBF39D" stroke-width="8" stroke-miterlimit="10" stroke-linejoin="bevel" shape-rendering="crispEdges"/>
</g>
<defs>
<filter id="filter0_d_244_504" x="0.834961" y="0.908447" width="490.002" height="690.999" filterUnits="userSpaceOnUse" color-interpolation-filters="sRGB">
<feFlood flood-opacity="0" result="BackgroundImageFix"/>
<feColorMatrix in="SourceAlpha" type="matrix" values="0 0 0 0 0 0 0 0 0 0 0 0 0 0 0 0 0 0 127 0" result="hardAlpha"/>
<feOffset dy="4"/>
<feGaussianBlur stdDeviation="2"/>
<feComposite in2="hardAlpha" operator="out"/>
<feColorMatrix type="matrix" values="0 0 0 0 0 0 0 0 0 0 0 0 0 0 0 0 0 0 0.25 0"/>
<feBlend mode="normal" in2="BackgroundImageFix" result="effect1_dropShadow_244_504"/>
<feBlend mode="normal" in="SourceGraphic" in2="effect1_dropShadow_244_504" result="shape"/>
</filter>
</defs>
</svg>
