<svg width="611" height="909" viewBox="0 0 611 909" fill="none" xmlns="http://www.w3.org/2000/svg">
<path d="M57.5324 389.899C62.0162 400.42 54.3377 413.377 42.1192 433.416C25.9072 460.003 15.3071 466.742 18.2987 474.827C22.7826 486.942 50.2321 482.604 54.0294 495.884C56.5656 504.77 47.0444 516.456 51.227 519.748C52.9505 521.11 54.5338 521.194 57.9387 521.735C69.3445 523.531 77.4365 529.982 84.8559 535.892C89.697 539.752 94.6152 543.676 98.8679 550.631C100.136 552.709 105.594 560.991 105.874 573.092C106.35 593.552 96.661 598.002 99.5685 610.994C101.845 621.178 108.242 620.406 116.383 634.156C128.006 653.781 121.021 665.573 128.293 672.058C142.677 684.889 177.041 645.007 218.671 643.983C271.09 642.698 330.263 703.159 336.372 761.9C341.136 807.726 288.114 832.861 300.641 877.01C302.54 883.706 307.388 900.79 319.557 904.384C347.68 912.687 368.298 835.107 437.959 791.379C509.561 746.43 578.114 772.344 585.786 744.353C597.157 702.857 467.454 633.707 477.893 614.503C482.791 605.491 509.848 617.444 561.265 605.379C579.656 601.062 604.401 594.984 606.804 580.813C608.31 571.927 600.912 560.521 592.091 556.948C586.276 554.59 583.586 557.152 569.672 556.246C558.708 555.531 553.194 555.208 550.055 552.035C541.914 543.795 547.645 524.261 554.96 512.027C564.446 496.158 573.084 498.46 585.085 482.548C599.196 463.829 600.345 443.27 600.499 439.733C600.646 436.28 601.367 410.499 583.684 388.495C566.267 366.821 544.394 365.473 545.151 356.208C546.111 344.458 581.239 347.287 590.69 326.027C597.367 311.013 587.488 292.406 582.984 283.913C573.862 266.731 560.354 257.663 556.361 255.136C530.88 239.035 507.879 246.145 505.217 236.887C502.421 227.159 527.937 219.831 533.241 195.475C533.528 194.149 536.849 177.837 528.337 163.89C513.358 139.345 475.287 153.804 463.181 133.007C453.814 116.927 472.436 102.229 462.48 81.7694C454.844 66.0821 434.631 55.6731 416.941 56.5013C389.295 57.7998 380.131 85.9807 364.396 81.7694C346.944 77.0948 355.141 41.6143 328.665 19.3012C313.511 6.52682 288.528 -0.632454 269.815 7.36908C242.456 19.0626 245.175 55.996 225.677 58.607C209.066 60.832 203.811 34.469 172.431 25.6182C168.627 24.5443 141.415 16.8656 124.09 30.5314C103.177 47.0258 119.122 76.9053 99.5685 92.2977C81.9414 106.174 61.0004 88.1776 37.2149 104.932C34.6297 106.75 19.7349 117.243 17.5981 133.709C14.1792 160.044 47.1495 172.783 42.8198 193.37C38.7913 212.517 7.62153 211.015 4.28667 229.868C0.804675 249.542 30.0268 255.262 38.6161 286.019C49.0341 323.303 16.8414 353.386 33.0113 373.053C41.2784 383.104 53.0205 379.307 57.5324 389.899Z" stroke="#FA8339" stroke-width="8" stroke-miterlimit="10"/>
</svg>
