<svg width="208" height="305" viewBox="0 0 208 305" fill="none" xmlns="http://www.w3.org/2000/svg">
<path d="M21.7554 131.205C23.2425 134.673 20.6957 138.944 16.6432 145.55C11.2661 154.314 7.75029 156.535 8.74252 159.201C10.2297 163.194 19.334 161.764 20.5935 166.142C21.4347 169.071 18.2767 172.923 19.664 174.008C20.2356 174.457 20.7608 174.485 21.8901 174.663C25.6731 175.255 28.357 177.381 30.8179 179.329C32.4236 180.602 34.0548 181.895 35.4653 184.188C35.8859 184.873 37.6961 187.603 37.789 191.592C37.947 198.336 34.7333 199.803 35.6977 204.086C36.4529 207.443 38.5744 207.188 41.2746 211.721C45.1297 218.19 42.8129 222.077 45.2249 224.215C49.9955 228.444 61.3934 215.298 75.2009 214.96C92.587 214.536 112.213 234.466 114.239 253.829C115.82 268.935 98.2336 277.221 102.388 291.774C103.018 293.981 104.626 299.612 108.663 300.797C117.99 303.534 124.829 277.961 147.933 263.547C171.682 248.73 194.419 257.272 196.964 248.045C200.735 234.367 157.716 211.573 161.179 205.242C162.803 202.272 171.777 206.212 188.831 202.235C194.931 200.812 203.138 198.808 203.935 194.137C204.435 191.208 201.981 187.448 199.055 186.27C197.127 185.493 196.234 186.338 191.619 186.039C187.983 185.803 186.154 185.697 185.113 184.651C182.413 181.935 184.314 175.496 186.739 171.463C189.886 166.232 192.751 166.991 196.731 161.746C201.411 155.575 201.793 148.798 201.844 147.632C201.892 146.494 202.132 137.996 196.267 130.743C190.49 123.598 183.235 123.154 183.486 120.1C183.805 116.227 195.456 117.159 198.59 110.151C200.805 105.202 197.529 99.0685 196.034 96.2689C193.009 90.6051 188.529 87.6158 187.204 86.7829C178.753 81.4754 171.124 83.8191 170.241 80.7674C169.314 77.5606 177.777 75.1452 179.536 67.1168C179.631 66.6795 180.733 61.3025 177.909 56.7053C172.941 48.6144 160.314 53.3805 156.299 46.5251C153.192 41.2245 159.368 36.3797 156.066 29.6354C153.534 24.4644 146.83 21.0332 140.962 21.3062C131.793 21.7342 128.753 31.0236 123.534 29.6354C117.746 28.0945 120.465 16.3989 111.683 9.04379C106.657 4.83292 98.3707 2.47299 92.1641 5.11056C83.09 8.96513 83.9916 21.1396 77.5246 22.0003C72.0151 22.7337 70.2723 14.0436 59.8644 11.1261C58.6026 10.7721 49.5773 8.24095 43.8307 12.7457C36.8944 18.1828 42.1832 28.032 35.6977 33.1059C29.8512 37.68 22.9056 31.7478 15.0166 37.2705C14.1591 37.8697 9.21888 41.3287 8.51015 46.7565C7.37617 55.4374 18.3116 59.6367 16.8755 66.4227C15.5394 72.7343 5.20117 72.2392 4.09508 78.4537C2.94019 84.9389 12.6324 86.8245 15.4813 96.963C18.9367 109.253 8.25919 119.17 13.6223 125.652C16.3643 128.966 20.2589 127.714 21.7554 131.205Z" stroke="#FA8339" stroke-width="8" stroke-miterlimit="10"/>
</svg>
