<svg width="642" height="1068" viewBox="0 0 642 1068" fill="none" xmlns="http://www.w3.org/2000/svg">
<g filter="url(#filter0_d_244_505)">
<path d="M12.5229 333.379C10.4862 329.456 5.74854 320.337 9.25677 312.702C13.9261 302.553 28.4062 305.377 33.2059 295.29C38.1796 284.831 26.5496 273.502 32.1193 266.997C36.7266 261.609 46.7484 266.991 50.623 261.559C54.7273 255.811 45.3327 247.251 49.5363 239.796C52.1691 235.128 56.7267 236.922 65.8667 230.001C70.977 226.128 75.7828 222.484 75.6648 218.033C75.4972 211.776 65.8046 211.224 61.514 201.708C59.2228 196.624 58.7074 189.51 61.514 184.296C65.0471 177.722 71.9269 177.747 93.0818 172.328C115.553 166.568 112.386 165.357 133.355 160.36C148.127 156.841 150.648 157.213 155.125 153.83C165.383 146.071 163.309 135.674 169.276 122.272C179.881 98.4605 206.295 86.7223 219.347 80.9246C240.67 71.446 256.323 72.0915 261.8 59.1616C264.78 52.1162 261.713 48.2056 266.153 42.8362C273.728 33.6803 287.599 39.1118 294.454 29.7759C298.012 24.9279 295.994 21.1228 297.721 16.7156C305.047 -1.96244 365.333 5.29398 369.562 5.83402C405.588 10.4151 431.623 12.2773 457.038 24.7851C537.293 64.2951 583.812 187.704 555.697 273.633C543.508 310.896 522.719 324.477 525.215 362.746C526.519 382.789 530.965 393.019 544.806 456.328C554.194 499.271 548.227 517.818 550.245 554.262C553.921 620.631 577.97 636.025 606.849 720.75C606.849 720.75 659.863 876.288 617.734 1011.29C614.989 1020.07 597.38 1058.22 586.166 1055.9C570.599 1052.68 591.853 976.196 564.061 882.384C557.032 858.659 554.213 858.628 494.734 744.686C450.593 660.129 429.581 617.155 423.98 599.961C393.281 505.639 427.401 406.34 419.627 405.179C416.057 404.645 415.026 426.483 396.771 437.824C381.775 447.141 371.269 439.37 359.763 449.792C352.17 456.676 347.314 464.46 342.346 481.35C332.325 515.416 332.188 537.769 329.854 550.693C322.8 589.774 285.122 601.096 253.088 631.519C186.556 694.71 157.733 828.082 189.959 907.908C195.057 920.54 215.529 966.016 210.642 1019.99C210.189 1024.97 208.692 1041.52 205.203 1041.75C203.427 1041.87 197.882 1037.99 183.433 941.639C167.667 836.493 159.782 783.916 167.102 754.475C186.072 678.198 238.944 626.075 238.944 626.075C267.202 598.216 292.517 587.279 298.813 555.342C305.581 521.003 310.499 488.712 306.432 487.874C302.266 487.017 299.105 521.816 274.864 561.866C255.647 593.623 253.442 589.812 207.376 635.858C207.376 635.858 166.041 677.609 149.686 737.057C140.229 771.427 147.065 786.194 163.836 904.631C175.938 990.1 181.992 1032.83 176.901 1034.12C171.424 1035.51 152.914 998.338 149.686 955.774C148.028 933.868 151.225 921.236 152.952 905.717C160.601 836.859 126.984 821.067 129.002 764.257C131.188 702.674 173.094 653.387 195.398 627.149C228.605 588.092 264.911 565.646 260.707 558.595C254.957 548.948 188.593 593.598 160.564 570.562C146.562 559.054 155.299 541.475 147.5 497.657C141.837 465.832 134.137 422.566 103.96 394.279C72.0262 364.353 28.3441 363.776 12.5291 333.341L12.5229 333.379Z" stroke="#FFDF3D" stroke-width="8" stroke-miterlimit="10" stroke-linejoin="bevel" shape-rendering="crispEdges"/>
</g>
<defs>
<filter id="filter0_d_244_505" x="0" y="0" width="642" height="1068" filterUnits="userSpaceOnUse" color-interpolation-filters="sRGB">
<feFlood flood-opacity="0" result="BackgroundImageFix"/>
<feColorMatrix in="SourceAlpha" type="matrix" values="0 0 0 0 0 0 0 0 0 0 0 0 0 0 0 0 0 0 127 0" result="hardAlpha"/>
<feOffset dy="4"/>
<feGaussianBlur stdDeviation="2"/>
<feComposite in2="hardAlpha" operator="out"/>
<feColorMatrix type="matrix" values="0 0 0 0 0 0 0 0 0 0 0 0 0 0 0 0 0 0 0.25 0"/>
<feBlend mode="normal" in2="BackgroundImageFix" result="effect1_dropShadow_244_505"/>
<feBlend mode="normal" in="SourceGraphic" in2="effect1_dropShadow_244_505" result="shape"/>
</filter>
</defs>
</svg>
